<?xml version="1.0" encoding="UTF-8" standalone="no"?>
<!-- Created with Inkscape (http://www.inkscape.org/) -->
<svg
   xmlns:dc="http://purl.org/dc/elements/1.1/"
   xmlns:cc="http://creativecommons.org/ns#"
   xmlns:rdf="http://www.w3.org/1999/02/22-rdf-syntax-ns#"
   xmlns:svg="http://www.w3.org/2000/svg"
   xmlns="http://www.w3.org/2000/svg"
   xmlns:xlink="http://www.w3.org/1999/xlink"
   xmlns:sodipodi="http://sodipodi.sourceforge.net/DTD/sodipodi-0.dtd"
   xmlns:inkscape="http://www.inkscape.org/namespaces/inkscape"
   inkscape:export-ydpi="240.00000"
   inkscape:export-xdpi="240.00000"
   inkscape:export-filename="/home/jimmac/gfx/novell/pdes/trunk/docs/BIGmime-text.png"
   sodipodi:docname="image_data_view.svg"
   sodipodi:docbase="/home/jimmac/src/cvs/tango-icon-theme/scalable/mimetypes"
   inkscape:version="0.46"
   sodipodi:version="0.32"
   id="svg249"
   height="48.000000px"
   width="48.000000px"
   inkscape:output_extension="org.inkscape.output.svg.inkscape">
  <defs
     id="defs3">
    <inkscape:perspective
       sodipodi:type="inkscape:persp3d"
       inkscape:vp_x="0 : 24 : 1"
       inkscape:vp_y="0 : 1000 : 0"
       inkscape:vp_z="48 : 24 : 1"
       inkscape:persp3d-origin="24 : 16 : 1"
       id="perspective91" />
    <radialGradient
       inkscape:collect="always"
       xlink:href="#linearGradient5060"
       id="radialGradient6719"
       gradientUnits="userSpaceOnUse"
       gradientTransform="matrix(-2.774389,0,0,1.969706,112.7623,-872.8854)"
       cx="605.71429"
       cy="486.64789"
       fx="605.71429"
       fy="486.64789"
       r="117.14286" />
    <linearGradient
       inkscape:collect="always"
       id="linearGradient5060">
      <stop
         style="stop-color:black;stop-opacity:1;"
         offset="0"
         id="stop5062" />
      <stop
         style="stop-color:black;stop-opacity:0;"
         offset="1"
         id="stop5064" />
    </linearGradient>
    <radialGradient
       inkscape:collect="always"
       xlink:href="#linearGradient5060"
       id="radialGradient6717"
       gradientUnits="userSpaceOnUse"
       gradientTransform="matrix(2.774389,0,0,1.969706,-1891.633,-872.8854)"
       cx="605.71429"
       cy="486.64789"
       fx="605.71429"
       fy="486.64789"
       r="117.14286" />
    <linearGradient
       id="linearGradient5048">
      <stop
         style="stop-color:black;stop-opacity:0;"
         offset="0"
         id="stop5050" />
      <stop
         id="stop5056"
         offset="0.5"
         style="stop-color:black;stop-opacity:1;" />
      <stop
         style="stop-color:black;stop-opacity:0;"
         offset="1"
         id="stop5052" />
    </linearGradient>
    <linearGradient
       inkscape:collect="always"
       xlink:href="#linearGradient5048"
       id="linearGradient6715"
       gradientUnits="userSpaceOnUse"
       gradientTransform="matrix(2.774389,0,0,1.969706,-1892.179,-872.8854)"
       x1="302.85715"
       y1="366.64789"
       x2="302.85715"
       y2="609.50507" />
    <linearGradient
       id="linearGradient7648"
       gradientUnits="userSpaceOnUse"
       x1="21.9326"
       y1="24.6274"
       x2="21.9326"
       y2="7.1091"
       style="stroke-dasharray:none;stroke-miterlimit:4.0000000;stroke-width:1.2166667">
      <stop
         offset="0"
         style="stop-color:#8595bc;stop-opacity:1;"
         id="stop7650" />
      <stop
         offset="1"
         style="stop-color:#041a3b;stop-opacity:1;"
         id="stop7652" />
    </linearGradient>
    <linearGradient
       inkscape:collect="always"
       xlink:href="#linearGradient7648"
       id="linearGradient7671"
       gradientUnits="userSpaceOnUse"
       gradientTransform="matrix(1.098989,0,0,-0.797757,-1.953865,37.324)"
       x1="21.9326"
       y1="24.627399"
       x2="21.9326"
       y2="7.1090999" />
    <linearGradient
       inkscape:collect="always"
       id="linearGradient4542">
      <stop
         style="stop-color:#000000;stop-opacity:1;"
         offset="0"
         id="stop4544" />
      <stop
         style="stop-color:#000000;stop-opacity:0;"
         offset="1"
         id="stop4546" />
    </linearGradient>
    <linearGradient
       id="linearGradient15662">
      <stop
         id="stop15664"
         offset="0.0000000"
         style="stop-color:#ffffff;stop-opacity:1.0000000;" />
      <stop
         id="stop15666"
         offset="1.0000000"
         style="stop-color:#f8f8f8;stop-opacity:1.0000000;" />
    </linearGradient>
    <radialGradient
       id="aigrd3"
       cx="20.8921"
       cy="64.5679"
       r="5.257"
       fx="20.8921"
       fy="64.5679"
       gradientUnits="userSpaceOnUse">
      <stop
         offset="0"
         style="stop-color:#F0F0F0"
         id="stop15573" />
      <stop
         offset="1.0000000"
         style="stop-color:#9a9a9a;stop-opacity:1.0000000;"
         id="stop15575" />
    </radialGradient>
    <radialGradient
       id="aigrd2"
       cx="20.8921"
       cy="114.5684"
       r="5.256"
       fx="20.8921"
       fy="114.5684"
       gradientUnits="userSpaceOnUse">
      <stop
         offset="0"
         style="stop-color:#F0F0F0"
         id="stop15566" />
      <stop
         offset="1.0000000"
         style="stop-color:#9a9a9a;stop-opacity:1.0000000;"
         id="stop15568" />
    </radialGradient>
    <linearGradient
       id="linearGradient269">
      <stop
         id="stop270"
         offset="0.0000000"
         style="stop-color:#a3a3a3;stop-opacity:1.0000000;" />
      <stop
         id="stop271"
         offset="1.0000000"
         style="stop-color:#4c4c4c;stop-opacity:1.0000000;" />
    </linearGradient>
    <linearGradient
       id="linearGradient259">
      <stop
         id="stop260"
         offset="0.0000000"
         style="stop-color:#fafafa;stop-opacity:1.0000000;" />
      <stop
         id="stop261"
         offset="1.0000000"
         style="stop-color:#bbbbbb;stop-opacity:1.0000000;" />
    </linearGradient>
    <radialGradient
       inkscape:collect="always"
       xlink:href="#linearGradient269"
       id="radialGradient15656"
       gradientUnits="userSpaceOnUse"
       gradientTransform="matrix(0.968273,0.000000,0.000000,1.032767,3.353553,0.646447)"
       cx="8.8244190"
       cy="3.7561285"
       fx="8.8244190"
       fy="3.7561285"
       r="37.751713" />
    <radialGradient
       inkscape:collect="always"
       xlink:href="#linearGradient259"
       id="radialGradient15658"
       gradientUnits="userSpaceOnUse"
       gradientTransform="scale(0.960493,1.041132)"
       cx="33.966679"
       cy="35.736916"
       fx="33.966679"
       fy="35.736916"
       r="86.708450" />
    <radialGradient
       inkscape:collect="always"
       xlink:href="#linearGradient15662"
       id="radialGradient15668"
       gradientUnits="userSpaceOnUse"
       gradientTransform="matrix(0.968273,0.000000,0.000000,1.032767,3.353553,0.646447)"
       cx="8.1435566"
       cy="7.2678967"
       fx="8.1435566"
       fy="7.2678967"
       r="38.158695" />
    <radialGradient
       r="5.256"
       fy="114.5684"
       fx="20.8921"
       cy="114.5684"
       cx="20.8921"
       gradientTransform="matrix(0.229703,0.000000,0.000000,0.229703,4.613529,3.979808)"
       gradientUnits="userSpaceOnUse"
       id="radialGradient2283"
       xlink:href="#aigrd2"
       inkscape:collect="always" />
    <radialGradient
       r="5.257"
       fy="64.5679"
       fx="20.8921"
       cy="64.5679"
       cx="20.8921"
       gradientTransform="matrix(0.229703,0.000000,0.000000,0.229703,4.613529,3.979808)"
       gradientUnits="userSpaceOnUse"
       id="radialGradient2285"
       xlink:href="#aigrd3"
       inkscape:collect="always" />
    <radialGradient
       inkscape:collect="always"
       xlink:href="#linearGradient4542"
       id="radialGradient4548"
       cx="24.306795"
       cy="42.07798"
       fx="24.306795"
       fy="42.07798"
       r="15.821514"
       gradientTransform="matrix(1.000000,0.000000,0.000000,0.284916,0.000000,30.08928)"
       gradientUnits="userSpaceOnUse" />
    <inkscape:perspective
       id="perspective2471"
       inkscape:persp3d-origin="372.04724 : 350.78739 : 1"
       inkscape:vp_z="744.09448 : 526.18109 : 1"
       inkscape:vp_y="0 : 1000 : 0"
       inkscape:vp_x="0 : 526.18109 : 1"
       sodipodi:type="inkscape:persp3d" />
    <inkscape:perspective
       id="perspective2480"
       inkscape:persp3d-origin="372.04724 : 350.78739 : 1"
       inkscape:vp_z="744.09448 : 526.18109 : 1"
       inkscape:vp_y="0 : 1000 : 0"
       inkscape:vp_x="0 : 526.18109 : 1"
       sodipodi:type="inkscape:persp3d" />
  </defs>
  <sodipodi:namedview
     inkscape:window-y="106"
     inkscape:window-x="82"
     inkscape:window-height="898"
     inkscape:window-width="1336"
     inkscape:document-units="px"
     inkscape:grid-bbox="true"
     showgrid="false"
     inkscape:current-layer="layer5"
     inkscape:cy="30.791637"
     inkscape:cx="16.922831"
     inkscape:zoom="9.8526216"
     inkscape:pageshadow="2"
     inkscape:pageopacity="0.0"
     borderopacity="0.25490196"
     bordercolor="#666666"
     pagecolor="#ffffff"
     id="base"
     inkscape:showpageshadow="false"
     fill="#729fcf" />
  <metadata
     id="metadata4">
    <rdf:RDF>
      <cc:Work
         rdf:about="">
        <dc:format>image/svg+xml</dc:format>
        <dc:type
           rdf:resource="http://purl.org/dc/dcmitype/StillImage" />
        <dc:title>Office Document</dc:title>
        <dc:subject>
          <rdf:Bag>
            <rdf:li>rich</rdf:li>
            <rdf:li>text</rdf:li>
            <rdf:li>document</rdf:li>
            <rdf:li>pdf</rdf:li>
            <rdf:li>openoffice</rdf:li>
            <rdf:li>word</rdf:li>
            <rdf:li>rtf</rdf:li>
          </rdf:Bag>
        </dc:subject>
        <cc:license
           rdf:resource="http://creativecommons.org/licenses/by-sa/2.0/" />
        <dc:creator>
          <cc:Agent>
            <dc:title>Jakub Steiner</dc:title>
          </cc:Agent>
        </dc:creator>
        <dc:source>http://jimmac.musichall.cz</dc:source>
      </cc:Work>
      <cc:License
         rdf:about="http://creativecommons.org/licenses/by/2.0/">
        <cc:permits
           rdf:resource="http://web.resource.org/cc/Reproduction" />
        <cc:permits
           rdf:resource="http://web.resource.org/cc/Distribution" />
        <cc:requires
           rdf:resource="http://web.resource.org/cc/Notice" />
        <cc:requires
           rdf:resource="http://web.resource.org/cc/Attribution" />
        <cc:permits
           rdf:resource="http://web.resource.org/cc/DerivativeWorks" />
        <cc:requires
           rdf:resource="http://web.resource.org/cc/ShareAlike" />
      </cc:License>
    </rdf:RDF>
  </metadata>
  <g
     inkscape:groupmode="layer"
     id="layer6"
     inkscape:label="Shadow">
    <g
       style="display:inline"
       transform="matrix(2.105461e-2,0,0,2.086758e-2,42.85172,41.1536)"
       id="g6707">
      <rect
         style="opacity:0.40206185;color:black;fill:url(#linearGradient6715);fill-opacity:1;fill-rule:nonzero;stroke:none;stroke-width:1;stroke-linecap:round;stroke-linejoin:miter;marker:none;marker-start:none;marker-mid:none;marker-end:none;stroke-miterlimit:4;stroke-dasharray:none;stroke-dashoffset:0;stroke-opacity:1;visibility:visible;display:inline;overflow:visible"
         id="rect6709"
         width="1339.6335"
         height="478.35718"
         x="-1559.2523"
         y="-150.69685" />
      <path
         style="opacity:0.40206185;color:black;fill:url(#radialGradient6717);fill-opacity:1;fill-rule:nonzero;stroke:none;stroke-width:1;stroke-linecap:round;stroke-linejoin:miter;marker:none;marker-start:none;marker-mid:none;marker-end:none;stroke-miterlimit:4;stroke-dasharray:none;stroke-dashoffset:0;stroke-opacity:1;visibility:visible;display:inline;overflow:visible"
         d="M -219.61876,-150.68038 C -219.61876,-150.68038 -219.61876,327.65041 -219.61876,327.65041 C -76.744594,328.55086 125.78146,220.48075 125.78138,88.454235 C 125.78138,-43.572302 -33.655436,-150.68036 -219.61876,-150.68038 z "
         id="path6711"
         sodipodi:nodetypes="cccc" />
      <path
         sodipodi:nodetypes="cccc"
         id="path6713"
         d="M -1559.2523,-150.68038 C -1559.2523,-150.68038 -1559.2523,327.65041 -1559.2523,327.65041 C -1702.1265,328.55086 -1904.6525,220.48075 -1904.6525,88.454235 C -1904.6525,-43.572302 -1745.2157,-150.68036 -1559.2523,-150.68038 z "
         style="opacity:0.40206185;color:black;fill:url(#radialGradient6719);fill-opacity:1;fill-rule:nonzero;stroke:none;stroke-width:1;stroke-linecap:round;stroke-linejoin:miter;marker:none;marker-start:none;marker-mid:none;marker-end:none;stroke-miterlimit:4;stroke-dasharray:none;stroke-dashoffset:0;stroke-opacity:1;visibility:visible;display:inline;overflow:visible" />
    </g>
  </g>
  <g
     style="display:inline"
     inkscape:groupmode="layer"
     inkscape:label="Base"
     id="layer1">
    <rect
       style="color:#000000;fill:url(#radialGradient15658);fill-opacity:1.0000000;fill-rule:nonzero;stroke:url(#radialGradient15656);stroke-width:1.0000000;stroke-linecap:round;stroke-linejoin:round;stroke-miterlimit:4.0000000;stroke-dashoffset:0.0000000;stroke-opacity:1.0000000;marker:none;marker-start:none;marker-mid:none;marker-end:none;visibility:visible;display:block;overflow:visible"
       id="rect15391"
       width="34.875000"
       height="40.920494"
       x="6.6035528"
       y="3.6464462"
       ry="1.1490486" />
    <rect
       style="color:#000000;fill:none;fill-opacity:1.0000000;fill-rule:nonzero;stroke:url(#radialGradient15668);stroke-width:1.0000000;stroke-linecap:round;stroke-linejoin:round;stroke-miterlimit:4.0000000;stroke-dashoffset:0.0000000;stroke-opacity:1.0000000;marker:none;marker-start:none;marker-mid:none;marker-end:none;visibility:visible;display:block;overflow:visible"
       id="rect15660"
       width="32.775887"
       height="38.946384"
       x="7.6660538"
       y="4.5839462"
       ry="0.14904857"
       rx="0.14904857" />
    <g
       transform="translate(0.646447,-3.798933e-2)"
       id="g2270">
      <g
         id="g1440"
         style="fill:#ffffff;fill-opacity:1.0000000;fill-rule:nonzero;stroke:#000000;stroke-miterlimit:4.0000000"
         transform="matrix(0.229703,0.000000,0.000000,0.229703,4.967081,4.244972)">
        <radialGradient
           id="radialGradient1442"
           cx="20.892099"
           cy="114.56840"
           r="5.2560000"
           fx="20.892099"
           fy="114.56840"
           gradientUnits="userSpaceOnUse">
          <stop
             offset="0"
             style="stop-color:#F0F0F0"
             id="stop1444" />
          <stop
             offset="1"
             style="stop-color:#474747"
             id="stop1446" />
        </radialGradient>
        <path
           style="stroke:none"
           d="M 23.428000,113.07000 C 23.428000,115.04300 21.828000,116.64200 19.855000,116.64200 C 17.881000,116.64200 16.282000,115.04200 16.282000,113.07000 C 16.282000,111.09600 17.882000,109.49700 19.855000,109.49700 C 21.828000,109.49700 23.428000,111.09700 23.428000,113.07000 z "
           id="path1448" />
        <radialGradient
           id="radialGradient1450"
           cx="20.892099"
           cy="64.567902"
           r="5.2570000"
           fx="20.892099"
           fy="64.567902"
           gradientUnits="userSpaceOnUse">
          <stop
             offset="0"
             style="stop-color:#F0F0F0"
             id="stop1452" />
          <stop
             offset="1"
             style="stop-color:#474747"
             id="stop1454" />
        </radialGradient>
        <path
           style="stroke:none"
           d="M 23.428000,63.070000 C 23.428000,65.043000 21.828000,66.643000 19.855000,66.643000 C 17.881000,66.643000 16.282000,65.043000 16.282000,63.070000 C 16.282000,61.096000 17.882000,59.497000 19.855000,59.497000 C 21.828000,59.497000 23.428000,61.097000 23.428000,63.070000 z "
           id="path1456" />
      </g>
      <path
         style="fill:url(#radialGradient2283);fill-rule:nonzero;stroke:none;stroke-miterlimit:4.0000000"
         d="M 9.9950109,29.952326 C 9.9950109,30.405530 9.6274861,30.772825 9.1742821,30.772825 C 8.7208483,30.772825 8.3535532,30.405301 8.3535532,29.952326 C 8.3535532,29.498892 8.7210780,29.131597 9.1742821,29.131597 C 9.6274861,29.131597 9.9950109,29.499122 9.9950109,29.952326 z "
         id="path15570" />
      <path
         style="fill:url(#radialGradient2285);fill-rule:nonzero;stroke:none;stroke-miterlimit:4.0000000"
         d="M 9.9950109,18.467176 C 9.9950109,18.920380 9.6274861,19.287905 9.1742821,19.287905 C 8.7208483,19.287905 8.3535532,18.920380 8.3535532,18.467176 C 8.3535532,18.013742 8.7210780,17.646447 9.1742821,17.646447 C 9.6274861,17.646447 9.9950109,18.013972 9.9950109,18.467176 z "
         id="path15577" />
    </g>
    <path
       style="fill:none;fill-opacity:0.75000000;fill-rule:evenodd;stroke:#000000;stroke-width:0.98855311;stroke-linecap:butt;stroke-linejoin:miter;stroke-miterlimit:4.0000000;stroke-opacity:0.017543854"
       d="M 11.505723,5.4942766 L 11.505723,43.400869"
       id="path15672"
       sodipodi:nodetypes="cc" />
    <path
       style="fill:none;fill-opacity:0.75000000;fill-rule:evenodd;stroke:#ffffff;stroke-width:1.0000000;stroke-linecap:butt;stroke-linejoin:miter;stroke-miterlimit:4.0000000;stroke-opacity:0.20467831"
       d="M 12.500000,5.0205154 L 12.500000,43.038228"
       id="path15674"
       sodipodi:nodetypes="cc" />
  </g>
  <g
     inkscape:groupmode="layer"
     id="layer5"
     inkscape:label="Text"
     style="display:inline">
    <rect
       ry="0.065390877"
       rx="0.13778631"
       y="31"
       x="15.999986"
       height="1"
       width="20.000006"
       id="rect15738"
       style="color:#000000;fill:#9b9b9b;fill-opacity:0.54970757;fill-rule:nonzero;stroke:none;stroke-width:1;stroke-linecap:round;stroke-linejoin:round;marker:none;marker-start:none;marker-mid:none;marker-end:none;stroke-miterlimit:4;stroke-dashoffset:0;stroke-opacity:0.08187136;visibility:visible;display:block;overflow:visible" />
    <rect
       ry="0.065390877"
       rx="0.13778631"
       y="33"
       x="15.999986"
       height="1"
       width="20.000006"
       id="rect15740"
       style="color:#000000;fill:#9b9b9b;fill-opacity:0.54970757;fill-rule:nonzero;stroke:none;stroke-width:1;stroke-linecap:round;stroke-linejoin:round;marker:none;marker-start:none;marker-mid:none;marker-end:none;stroke-miterlimit:4;stroke-dashoffset:0;stroke-opacity:0.08187136;visibility:visible;display:block;overflow:visible" />
    <rect
       ry="0.065390877"
       rx="0.13778631"
       y="35"
       x="15.999986"
       height="1"
       width="20.000006"
       id="rect15742"
       style="color:#000000;fill:#9b9b9b;fill-opacity:0.54970757;fill-rule:nonzero;stroke:none;stroke-width:1;stroke-linecap:round;stroke-linejoin:round;marker:none;marker-start:none;marker-mid:none;marker-end:none;stroke-miterlimit:4;stroke-dashoffset:0;stroke-opacity:0.08187136;visibility:visible;display:block;overflow:visible" />
    <rect
       ry="0.065390877"
       rx="0.096450485"
       y="37"
       x="15.999986"
       height="1"
       width="14.000014"
       id="rect15744"
       style="color:#000000;fill:#9b9b9b;fill-opacity:0.54970757;fill-rule:nonzero;stroke:none;stroke-width:1;stroke-linecap:round;stroke-linejoin:round;marker:none;marker-start:none;marker-mid:none;marker-end:none;stroke-miterlimit:4;stroke-dashoffset:0;stroke-opacity:0.08187136;visibility:visible;display:block;overflow:visible" />
    <g
       id="g5376"
       style="opacity:0.66477273">
      <g
         transform="matrix(0.608982,0,0,0.606219,12.8233,10.5572)"
         id="g7654">
        <path
           style="fill:url(#linearGradient7671);fill-opacity:1;fill-rule:nonzero;stroke:none;stroke-width:1.2166667;stroke-miterlimit:4"
           d="M 5.512695,30 L 39.643234,30 L 39.643234,19.627375 L 5.512695,19.627375 L 5.512695,30 z "
           id="path7644" />
        <path
           id="path16203"
           d="M 5.512695,5.6791358 L 39.643234,5.6791358 L 39.643234,19.627375 L 5.512695,19.627375 L 5.512695,5.6791358 z "
           style="fill:#729fcf;fill-rule:nonzero;stroke:none;stroke-width:1.2166667;stroke-miterlimit:4;fill-opacity:1" />
        <g
           transform="matrix(1.189217,0,0,1.189217,-3.525355,-6.535408)"
           style="fill-rule:nonzero;stroke:#000000;stroke-width:2.00241709;stroke-miterlimit:4"
           id="g16205">
          <g
             id="g16207">
            <path
               id="path16209"
               d="M 18.4,15.4 C 18.4,17.6 16.6,19.5 14.3,19.5 C 12.1,19.5 10.2,17.7 10.2,15.4 C 10.2,13.2 12,11.3 14.3,11.3 C 16.5,11.3 18.4,13.1 18.4,15.4 z "
               style="opacity:0.04999994;fill:#e8f52f;stroke:none" />
            <path
               id="path16211"
               d="M 18,15.4 C 18,17.4 16.4,19.1 14.3,19.1 C 12.3,19.1 10.6,17.5 10.6,15.4 C 10.6,13.4 12.2,11.7 14.3,11.7 C 16.3,11.7 18,13.3 18,15.4 L 18,15.4 z "
               style="opacity:0.20829994;fill:#ecf751;stroke:none" />
            <path
               id="path16213"
               d="M 17.6,15.4 C 17.6,17.2 16.1,18.7 14.3,18.7 C 12.5,18.7 11,17.2 11,15.4 C 11,13.6 12.5,12.1 14.3,12.1 C 16.1,12.1 17.6,13.6 17.6,15.4 L 17.6,15.4 z "
               style="opacity:0.36669994;fill:#f0f972;stroke:none" />
            <path
               id="path16215"
               d="M 17.2,15.4 C 17.2,17 15.9,18.3 14.3,18.3 C 12.7,18.3 11.4,17 11.4,15.4 C 11.4,13.8 12.7,12.5 14.3,12.5 C 15.9,12.5 17.2,13.8 17.2,15.4 z "
               style="opacity:0.525;fill:#f4fa95;stroke:none" />
            <path
               id="path16217"
               d="M 16.8,15.4 C 16.8,16.8 15.7,17.9 14.3,17.9 C 12.9,17.9 11.8,16.8 11.8,15.4 C 11.8,14 12.9,12.9 14.3,12.9 C 15.7,12.9 16.8,14 16.8,15.4 L 16.8,15.4 z "
               style="opacity:0.6833;fill:#f7fcb7;stroke:none" />
            <path
               id="path16219"
               d="M 16.4,15.4 C 16.4,16.6 15.4,17.5 14.3,17.5 C 13.2,17.5 12.2,16.5 12.2,15.4 C 12.2,14.3 13.2,13.3 14.3,13.3 C 15.4,13.3 16.4,14.3 16.4,15.4 z "
               style="opacity:0.8417;fill:#fbfddb;stroke:none" />
            <path
               id="path16221"
               d="M 16,15.4 C 16,16.4 15.2,17.2 14.2,17.2 C 13.2,17.2 12.4,16.4 12.4,15.4 C 12.4,14.4 13.2,13.6 14.2,13.6 C 15.2,13.6 16,14.4 16,15.4 L 16,15.4 z "
               style="fill:#ffffff;stroke:none" />
          </g>
        </g>
        <path
           id="path16223"
           d="M 25.015859,21.649044 L 33.697148,21.649044 L 35.362052,22.124732 L 32.507931,22.124732 C 32.507931,22.124732 35.362052,22.362574 36.789115,24.146401 C 38.216174,25.811305 35.12421,27.832976 35.12421,27.832976 C 35.12421,27.832976 35.12421,27.832976 35.12421,27.832976 C 35.005288,27.47621 34.291756,24.622087 32.864696,23.43287 C 31.794399,22.481496 30.605182,22.243652 30.605182,22.243652 L 25.015859,22.243652 L 25.015859,21.767966 L 25.015859,21.649044 z "
           style="opacity:0.3;fill-rule:nonzero;stroke:none;stroke-width:1.2166667;stroke-miterlimit:4" />
        <path
           id="path16225"
           d="M 30.724106,22.362574 L 25.729391,22.362574 L 35.005288,27.595131 L 30.724106,22.362574 L 30.724106,22.362574 z "
           style="opacity:0.3;fill-rule:nonzero;stroke:none;stroke-width:1.2166667;stroke-miterlimit:4" />
        <path
           id="path16227"
           d="M 25.015859,21.767966 L 33.697148,21.767966 L 35.005288,20.935513 L 32.151167,20.935513 C 32.151167,20.935513 34.767443,20.459827 35.12421,17.486782 C 35.480973,14.513739 31.080869,11.183931 31.080869,11.183931 C 31.080869,11.183931 31.080869,11.183931 31.080869,11.302853 C 31.19979,12.016383 32.389007,17.011096 31.556557,18.913846 C 31.19979,20.578747 30.129495,20.935513 30.129495,20.935513 L 24.659094,20.935513 L 24.896938,21.767966 L 25.015859,21.767966 z "
           style="fill:#515151;fill-rule:nonzero;stroke:none;stroke-width:1.2166667;stroke-miterlimit:4" />
        <path
           id="path16229"
           d="M 30.248418,20.459827 L 25.253704,20.459827 L 31.19979,11.421773 L 30.248418,20.459827 z "
           style="fill:#515151;fill-rule:nonzero;stroke:none;stroke-width:1.2166667;stroke-miterlimit:4" />
      </g>
      <rect
         y="14.485752"
         x="16.508501"
         height="13.997463"
         width="19.995502"
         id="rect8163"
         style="opacity:1;color:#000000;fill:none;fill-opacity:1;fill-rule:nonzero;stroke:#9e9e9e;stroke-width:0.99999863;stroke-linecap:butt;stroke-linejoin:miter;marker:none;marker-start:none;marker-mid:none;marker-end:none;stroke-miterlimit:4;stroke-dasharray:none;stroke-dashoffset:0;stroke-opacity:1;visibility:visible;display:inline;overflow:visible" />
    </g>
    <rect
       style="color:#000000;fill:#9b9b9b;fill-opacity:0.54970757;fill-rule:nonzero;stroke:none;stroke-width:1;stroke-linecap:round;stroke-linejoin:round;marker:none;marker-start:none;marker-mid:none;marker-end:none;stroke-miterlimit:4;stroke-dashoffset:0;stroke-opacity:0.08187136;visibility:visible;display:block;overflow:visible"
       id="rect1768"
       width="20.000006"
       height="1"
       x="15.999986"
       y="9"
       rx="0.13778631"
       ry="0.065390877" />
    <rect
       style="color:#000000;fill:#9b9b9b;fill-opacity:0.54970757;fill-rule:nonzero;stroke:none;stroke-width:1;stroke-linecap:round;stroke-linejoin:round;marker:none;marker-start:none;marker-mid:none;marker-end:none;stroke-miterlimit:4;stroke-dashoffset:0;stroke-opacity:0.08187136;visibility:visible;display:block;overflow:visible"
       id="rect1770"
       width="14.000014"
       height="1"
       x="15.999986"
       y="11"
       rx="0.096450485"
       ry="0.065390877" />
    <g
       id="g2492"
       transform="translate(42.932736,1.7970083)">
      <path
         style="fill:#d3a8c8"
         d="M -25.900318,19.724194 L -25.900318,13.280457 L -16.383471,13.280457 L -6.866625,13.280457 L -6.866625,19.724194 L -6.866625,26.167932 L -16.383471,26.167932 L -25.900318,26.167932 L -25.900318,19.724194 z"
         id="path2498" />
      <path
         style="fill:#aa6795"
         d="M -25.356498,26.101133 C -25.356498,26.064392 -25.293282,25.948779 -25.216017,25.844213 C -25.08342,25.664763 -25.063118,25.661807 -24.854249,25.791536 C -24.732541,25.867129 -24.650064,25.95521 -24.670967,25.98727 C -24.691871,26.019331 -24.620144,26.052479 -24.511575,26.060932 C -24.368703,26.072057 -24.257846,25.983394 -24.110244,25.73995 C -23.998082,25.554957 -23.906312,25.348333 -23.906312,25.280787 C -23.906312,25.21324 -23.845527,25.110154 -23.771233,25.051707 C -23.685978,24.984636 -23.656093,24.870135 -23.69021,24.74128 C -23.727813,24.59926 -23.69996,24.521003 -23.598698,24.484169 C -23.518635,24.455046 -23.451832,24.348364 -23.450246,24.247098 C -23.448661,24.145832 -23.388359,23.989067 -23.316243,23.898732 C -23.244126,23.808397 -23.206014,23.653747 -23.231549,23.555066 C -23.257084,23.456385 -23.200066,23.231858 -23.104843,23.056118 C -22.945926,22.762827 -22.944738,22.7432 -23.090375,22.817084 C -23.403593,22.975983 -23.687016,22.391423 -23.460888,22.052899 C -23.342788,21.876099 -23.090492,22.004623 -22.972124,22.301885 C -22.86571,22.569125 -22.778696,22.620731 -22.682718,22.473523 C -22.651908,22.426268 -22.557732,22.387014 -22.473436,22.386291 C -22.160765,22.383607 -22.049503,22.246937 -22.164767,22.007134 C -22.259272,21.810521 -22.251303,21.786191 -22.092404,21.786191 C -21.994195,21.786191 -21.862899,21.863515 -21.800635,21.958023 C -21.642036,22.198756 -21.368486,22.182441 -21.368486,21.932249 C -21.368486,21.694493 -21.525948,21.528441 -21.751404,21.528441 C -21.847206,21.528441 -21.955483,21.431977 -22.008749,21.299172 C -22.059326,21.173075 -22.166461,21.024327 -22.246828,20.968621 C -22.350215,20.896959 -22.362427,20.849456 -22.288583,20.806195 C -22.231181,20.772566 -22.184216,20.616749 -22.184216,20.459934 C -22.184216,20.30312 -22.12081,20.124935 -22.043313,20.063968 C -21.792239,19.866447 -21.735094,19.678273 -21.833232,19.372189 C -21.948672,19.012142 -21.81173,18.60728 -21.574506,18.60728 C -21.475974,18.60728 -21.328887,18.456102 -21.195464,18.217694 C -21.075548,18.003421 -20.839676,17.713453 -20.671305,17.57332 C -20.502934,17.433187 -20.419407,17.318532 -20.485691,17.318532 C -20.611576,17.318532 -21.193246,17.82865 -21.947755,18.600745 C -22.312162,18.973646 -22.421287,19.163495 -22.560838,19.667354 C -22.772299,20.430846 -22.979299,20.659005 -23.325044,20.509677 C -23.458225,20.452156 -23.576347,20.416206 -23.587537,20.429789 C -23.598728,20.443372 -23.756096,20.676794 -23.937245,20.948505 C -24.191649,21.330092 -24.317042,21.442525 -24.488217,21.442525 C -24.782865,21.442525 -24.876213,21.160614 -24.676998,20.872406 C -24.522855,20.649406 -24.54287,20.52135 -24.716012,20.622785 C -24.769178,20.653933 -24.812678,20.738182 -24.812678,20.810005 C -24.812678,20.881828 -25.025979,21.173059 -25.286681,21.457184 C -25.672824,21.878022 -25.756097,22.024072 -25.735943,22.245128 C -25.716986,22.453055 -25.732981,22.486358 -25.804373,22.387606 C -25.855616,22.316725 -25.898167,21.965303 -25.89893,21.606669 C -25.900234,20.993925 -25.886655,20.948706 -25.673726,20.856742 C -25.387465,20.733105 -25.38834,20.639671 -25.677777,20.423856 C -25.866476,20.283156 -25.904461,20.188274 -25.886649,19.902121 C -25.874675,19.709753 -25.827071,19.552361 -25.780863,19.552361 C -25.734655,19.552361 -25.747623,19.494368 -25.809681,19.423487 C -25.901586,19.318516 -25.896883,19.294612 -25.784328,19.294612 C -25.708325,19.294612 -25.603486,19.178625 -25.551353,19.036863 C -25.442789,18.741654 -25.573346,18.67872 -25.774148,18.929467 C -25.881297,19.063267 -25.89487,19.045137 -25.897435,18.764794 C -25.899021,18.591529 -25.85857,18.436575 -25.807544,18.420452 C -25.672535,18.377793 -25.595626,17.809827 -25.673525,17.430729 C -25.730177,17.155033 -25.752235,17.130695 -25.814147,17.275574 C -25.862154,17.387916 -25.889783,17.231751 -25.893948,16.824513 C -25.897514,16.475826 -25.861671,16.201618 -25.812526,16.201618 C -25.76424,16.201618 -25.748851,16.142043 -25.778327,16.06923 C -25.807803,15.996416 -25.796327,15.943001 -25.752823,15.950529 C -25.70932,15.958058 -25.592153,15.956152 -25.492453,15.946294 C -25.364141,15.933608 -25.397242,15.904816 -25.605749,15.847747 C -26.027831,15.732222 -26.008346,15.487289 -25.58309,15.562913 C -25.326546,15.608534 -25.265862,15.592687 -25.265862,15.480072 C -25.265862,15.371098 -25.334841,15.348928 -25.58309,15.378115 L -25.900318,15.415412 L -25.900318,14.338225 L -25.900318,13.261037 L -25.605749,13.672382 C -25.158779,14.296542 -24.720571,14.466074 -25.032587,13.894123 C -25.111038,13.750316 -25.175225,13.553411 -25.175225,13.456557 C -25.175225,13.304369 -25.118193,13.280457 -24.755217,13.280457 C -24.524212,13.280457 -24.178821,13.324872 -23.987681,13.379156 C -23.728132,13.452869 -23.608743,13.453144 -23.516075,13.380241 C -23.341365,13.242796 -21.519349,13.255821 -21.57921,13.394087 C -21.603298,13.449726 -21.651676,13.562907 -21.686717,13.645602 C -21.792011,13.894092 -21.570108,13.816681 -21.440432,13.559686 C -21.324405,13.329742 -21.298411,13.322749 -20.469726,13.298535 C -19.696622,13.275946 -19.629357,13.286354 -19.739009,13.411596 C -19.919608,13.617871 -20.329068,13.795956 -20.622746,13.795956 C -20.95586,13.795956 -21.689643,14.031783 -21.820075,14.180759 C -21.975678,14.358485 -19.703797,14.359314 -19.43618,14.181629 C -19.330211,14.111271 -19.185058,14.053705 -19.113618,14.053705 C -19.042177,14.053705 -18.857517,13.964677 -18.703261,13.855864 C -17.979706,13.345465 -17.775238,13.28039 -16.899451,13.281773 C -16.328016,13.282675 -16.108957,13.309254 -16.202198,13.366373 C -16.319363,13.438148 -16.31697,13.449841 -16.184888,13.450974 C -16.100593,13.451698 -16.006038,13.413049 -15.974767,13.365087 C -15.890803,13.236305 -12.922911,13.268784 -12.998936,13.397653 C -13.032632,13.454774 -13.005889,13.45071 -12.934449,13.387853 C -12.765914,13.239566 -12.486096,13.252972 -12.486096,13.409332 C -12.486096,13.576069 -12.178895,13.576069 -12.032913,13.409332 C -11.90269,13.260594 -10.764,13.222045 -10.764,13.366373 C -10.764,13.413628 -10.720806,13.45229 -10.668014,13.45229 C -10.615222,13.45229 -10.597236,13.413628 -10.628045,13.366373 C -10.664442,13.310549 -10.206016,13.280457 -9.3191635,13.280457 L -7.9542646,13.280457 L -7.9542646,13.504364 C -7.9542646,13.627512 -7.8379642,13.869152 -7.6958197,14.041342 C -7.5536752,14.213531 -7.4065429,14.470401 -7.3688589,14.612163 C -7.3065444,14.846585 -7.2909712,14.855631 -7.1967798,14.712116 C -6.8843925,14.236143 -6.8724964,14.244041 -6.8695072,14.929416 C -6.8668335,15.542455 -6.8796196,15.587964 -7.0459922,15.557592 C -7.1446447,15.539583 -7.2490173,15.561134 -7.2779331,15.605484 C -7.306848,15.649833 -7.2258107,15.686119 -7.0978499,15.686119 L -6.8651948,15.686119 L -6.8680444,20.927025 L -6.870894,26.167932 L -7.1913371,26.167932 C -7.4235681,26.167932 -7.4930429,26.138368 -7.4437139,26.060536 C -7.3893899,25.974823 -7.4037549,25.974701 -7.5148609,26.059932 C -7.7095838,26.209305 -10.913111,26.20642 -10.977192,26.056814 C -11.011508,25.976698 -11.023225,25.976975 -11.028754,26.058029 C -11.03426,26.138727 -11.857862,26.162694 -14.599821,26.161946 L -18.163732,26.160975 L -18.124362,25.906704 C -18.084043,25.646296 -18.147959,25.598863 -18.364176,25.728739 C -18.459846,25.786205 -18.464129,25.842621 -18.383646,25.985173 C -18.28874,26.153271 -18.30296,26.167932 -18.560911,26.167932 C -18.724796,26.167932 -18.818077,26.132223 -18.785342,26.082016 C -18.754533,26.034761 -18.770112,25.996099 -18.819962,25.996099 C -18.869813,25.996099 -18.934363,26.032547 -18.963408,26.077095 C -18.993889,26.123847 -19.931556,26.160901 -21.181195,26.164735 C -22.853985,26.169869 -23.355756,26.146571 -23.388322,26.06226 C -23.422055,25.974926 -23.454446,25.974582 -23.550563,26.060536 C -23.683326,26.179262 -25.356498,26.216873 -25.356498,26.101133 z M -20.822849,25.865148 C -20.759791,25.793125 -20.73091,25.712667 -20.75867,25.686354 C -20.828032,25.620604 -21.187213,25.810738 -21.187213,25.913205 C -21.187213,26.042041 -20.950373,26.010803 -20.822849,25.865148 z M -19.827664,25.94163 C -19.827664,25.808561 -20.042963,25.22304 -20.091261,25.224761 C -20.120758,25.225812 -20.246384,25.300589 -20.370431,25.390933 L -20.59597,25.555195 L -20.360133,25.640191 C -20.230423,25.686939 -20.099621,25.786141 -20.069461,25.860643 C -20.016805,25.990715 -19.827664,26.054066 -19.827664,25.94163 z M -17.087219,25.282176 C -16.793978,25.058794 -16.635729,24.793268 -16.795837,24.793268 C -16.990007,24.793268 -17.380474,25.082744 -17.380474,25.226694 C -17.380474,25.364389 -17.422949,25.387852 -17.597178,25.3464 C -17.823174,25.292633 -17.977205,25.415855 -17.876697,25.570012 C -17.79377,25.697203 -17.483577,25.58411 -17.087219,25.282176 z M -8.3251724,24.965101 C -8.0542459,24.965101 -7.9599811,24.920972 -7.8626482,24.748573 C -7.6619787,24.393146 -7.8697813,24.319817 -8.2252219,24.620629 C -8.3932532,24.762835 -8.595885,24.879185 -8.6755147,24.879185 C -8.8858234,24.879185 -9.2231775,25.125047 -9.2231775,25.278318 C -9.2231775,25.376888 -9.1531235,25.354082 -8.944313,25.187529 C -8.7526745,25.034674 -8.5590158,24.965101 -8.3251724,24.965101 z M -18.014931,24.621435 C -18.014931,24.526927 -18.004734,24.423827 -17.992272,24.392324 C -17.979809,24.360822 -18.020596,24.318938 -18.082908,24.299248 C -18.157214,24.27577 -18.196204,24.354616 -18.196204,24.528359 C -18.196204,24.674059 -18.155418,24.793268 -18.105568,24.793268 C -18.055717,24.793268 -18.014931,24.715943 -18.014931,24.621435 z M -16.306136,23.596558 C -16.502536,23.265565 -16.544547,23.239804 -16.836655,23.271243 C -17.093951,23.298934 -17.226658,23.249197 -17.539089,23.007979 C -17.750952,22.844405 -17.924294,22.644111 -17.924294,22.56288 C -17.924294,22.391605 -17.571325,22.216933 -17.217596,22.21316 C -17.003123,22.210873 -16.992921,22.199346 -17.135684,22.120608 C -17.254357,22.055158 -17.409855,22.066552 -17.706776,22.162454 C -18.387481,22.382314 -19.285063,22.15017 -20.226468,21.510776 C -20.672553,21.2078 -21.031264,21.185814 -20.989585,21.464004 C -20.970209,21.593325 -20.815492,21.731504 -20.522192,21.881434 C -20.281055,22.004698 -20.008142,22.214824 -19.915718,22.34838 C -19.79426,22.523889 -19.616711,22.622978 -19.275273,22.705808 C -19.015453,22.768838 -18.728432,22.798011 -18.637448,22.770638 C -18.536675,22.74032 -18.256825,22.840425 -17.921393,23.026778 C -17.618546,23.195029 -17.342358,23.334683 -17.307641,23.337122 C -17.155736,23.347794 -16.655381,24.058756 -16.655381,24.263929 L -16.655381,24.489256 L -16.374113,24.222636 L -16.092845,23.956015 L -16.306136,23.596558 z M -13.888968,23.51195 C -13.571098,23.234207 -13.415392,23.1652 -12.993927,23.115284 C -12.428024,23.048261 -12.352746,22.990205 -12.433972,22.68343 C -12.480795,22.506587 -12.544173,22.473523 -12.836322,22.473523 C -13.067986,22.473523 -13.237549,22.416484 -13.347144,22.30169 C -13.568419,22.069917 -13.859199,22.085392 -14.154309,22.344648 C -14.515626,22.662066 -14.712002,22.622569 -14.911457,22.19236 L -15.021895,21.954156 L -15.476092,22.172328 C -15.933463,22.392026 -16.056011,22.605017 -15.782327,22.70457 C -15.700949,22.734172 -15.558749,22.713626 -15.466328,22.658915 C -15.203643,22.503409 -15.191757,22.536294 -15.386293,22.880353 C -15.619645,23.293065 -15.614838,23.381772 -15.34527,23.6373 C -15.172398,23.80117 -15.028154,23.848187 -14.698291,23.848187 C -14.330572,23.848187 -14.222304,23.803206 -13.888968,23.51195 z M -11.217183,23.467155 C -11.217183,23.336738 -11.408854,22.989021 -11.480742,22.989021 C -11.592627,22.989021 -11.699257,23.304784 -11.625549,23.417835 C -11.571235,23.501141 -11.217183,23.543902 -11.217183,23.467155 z M -11.640728,22.250978 C -11.772271,21.926035 -12.215661,22.293498 -12.210413,22.723109 L -12.206641,23.03198 L -11.899169,22.70204 C -11.730059,22.520572 -11.613761,22.317594 -11.640728,22.250978 z M -9.7621147,22.494435 C -9.6348037,22.412052 -9.4002814,22.213261 -9.240954,22.052677 C -8.9982708,21.808079 -8.9512676,21.693894 -8.9512676,21.348936 C -8.9512676,20.885979 -9.0673223,20.758529 -9.3040027,20.961567 C -9.3920245,21.037077 -9.5375117,21.098859 -9.6273072,21.098859 C -9.7683967,21.098859 -9.7840007,21.154123 -9.7421909,21.505742 C -9.6803876,22.025508 -9.8589998,22.387606 -10.17719,22.387606 C -10.412339,22.387606 -10.482283,22.514203 -10.288158,22.588455 C -10.090226,22.664163 -9.9992845,22.647909 -9.7621147,22.494435 z M -10.943455,22.428488 C -10.880398,22.356465 -10.844814,22.283646 -10.86438,22.266669 C -10.931292,22.208612 -11.30782,22.381902 -11.30782,22.470754 C -11.30782,22.604367 -11.07366,22.577205 -10.943455,22.428488 z M -10.899955,21.442525 C -10.930764,21.39527 -10.996758,21.356608 -11.046608,21.356608 C -11.096458,21.356608 -11.112038,21.39527 -11.081228,21.442525 C -11.050419,21.489779 -10.984426,21.528441 -10.934576,21.528441 C -10.884726,21.528441 -10.869146,21.489779 -10.899955,21.442525 z M -12.168868,21.127526 C -12.009564,21.006514 -12.007716,20.996432 -12.153622,21.044342 C -12.244937,21.074326 -12.357099,21.098859 -12.402873,21.098859 C -12.448645,21.098859 -12.486096,21.137521 -12.486096,21.184775 C -12.486096,21.306455 -12.378965,21.287122 -12.168868,21.127526 z M -13.392463,20.838086 C -13.392463,20.745241 -13.448648,20.669276 -13.51732,20.669276 C -13.698227,20.669276 -13.874869,20.902746 -13.811812,21.058511 C -13.735886,21.246068 -13.392463,21.065552 -13.392463,20.838086 z M -16.903641,20.873856 C -16.815858,20.844552 -16.71919,20.72674 -16.688824,20.61205 C -16.622186,20.360372 -16.717465,20.233635 -16.800376,20.463667 C -16.83262,20.553125 -16.966136,20.716941 -17.097078,20.827702 C -17.228021,20.938464 -17.273976,21.006148 -17.199201,20.978111 C -17.124426,20.950075 -16.991424,20.90316 -16.903641,20.873856 z M -11.126547,20.738872 C -11.126547,20.62481 -11.420696,20.689292 -11.464099,20.812869 C -11.486584,20.876886 -11.431601,20.896687 -11.312995,20.867286 C -11.210449,20.841866 -11.126547,20.78408 -11.126547,20.738872 z M -10.22018,20.669276 C -10.22018,20.622022 -10.283767,20.58336 -10.361485,20.58336 C -10.439202,20.58336 -10.477581,20.622022 -10.446772,20.669276 C -10.415963,20.71653 -10.352376,20.755192 -10.305468,20.755192 C -10.25856,20.755192 -10.22018,20.71653 -10.22018,20.669276 z M -25.051526,20.196735 C -25.022136,20.102227 -25.03647,19.966909 -25.08338,19.896028 C -25.158711,19.782199 -25.185479,19.783083 -25.312647,19.903593 C -25.432976,20.017624 -25.438384,20.07798 -25.345574,20.271069 C -25.23004,20.511433 -25.142509,20.489306 -25.051526,20.196735 z M -13.936282,20.424843 C -13.936282,20.384912 -14.014463,20.285175 -14.110016,20.203203 C -14.248615,20.084305 -14.321933,20.073536 -14.472562,20.149952 C -14.666577,20.248378 -14.706965,20.339672 -14.600951,20.440165 C -14.512859,20.52367 -13.936282,20.510378 -13.936282,20.424843 z M -23.401267,20.003423 C -23.311427,19.873474 -23.17254,19.593953 -23.092629,19.382264 C -22.950284,19.005185 -22.855292,18.917828 -21.876204,18.263614 C -21.494166,18.008341 -21.446228,17.866096 -21.79901,18.034559 C -21.936098,18.100022 -22.15487,18.177755 -22.28517,18.207299 C -22.892745,18.345059 -24.004253,19.795034 -23.773541,20.148894 C -23.678036,20.295377 -23.575376,20.255261 -23.401267,20.003423 z M -10.718095,19.723293 C -10.686962,19.675543 -10.646232,19.411911 -10.627582,19.137444 C -10.608933,18.862977 -10.581015,18.583998 -10.565541,18.517491 C -10.529535,18.362725 -10.87718,18.30894 -11.11937,18.431806 C -11.277219,18.511885 -11.300005,18.599559 -11.28266,19.060096 C -11.269365,19.413107 -11.216217,19.630951 -11.126547,19.699983 C -10.959075,19.828909 -10.793129,19.83838 -10.718095,19.723293 z M -14.431057,18.183414 C -14.463916,18.133016 -14.534174,18.091781 -14.587186,18.091781 C -14.647287,18.091781 -14.64041,18.141078 -14.568921,18.222732 C -14.444609,18.364718 -14.333507,18.333032 -14.431057,18.183414 z M -11.217183,18.172627 C -11.217183,18.122584 -11.25797,18.105535 -11.30782,18.134739 C -11.35767,18.163944 -11.398457,18.204888 -11.398457,18.225726 C -11.398457,18.246565 -11.35767,18.263614 -11.30782,18.263614 C -11.25797,18.263614 -11.217183,18.22267 -11.217183,18.172627 z M -22.255088,17.720336 C -22.191183,17.61055 -21.832999,17.257458 -21.459123,16.935688 C -20.66824,16.255028 -20.566341,16.105508 -21.084953,16.386657 C -21.597053,16.664276 -22.637399,17.593142 -22.637399,17.772749 C -22.637399,17.986834 -22.39051,17.952987 -22.255088,17.720336 z M -17.199201,17.62976 C -17.199201,17.564665 -17.260381,17.463275 -17.335156,17.404449 C -17.450127,17.314001 -17.471111,17.332268 -17.471111,17.522804 C -17.471111,17.665803 -17.421443,17.748115 -17.335156,17.748115 C -17.260381,17.748115 -17.199201,17.694855 -17.199201,17.62976 z M -15.023922,17.370683 C -15.023922,17.352112 -15.08722,17.313892 -15.164585,17.28575 C -15.245244,17.25641 -15.281626,17.270814 -15.249872,17.319517 C -15.196645,17.401155 -15.023922,17.440268 -15.023922,17.370683 z M -15.61306,17.232616 C -15.643869,17.185362 -15.687063,17.1467 -15.709046,17.1467 C -15.731029,17.1467 -15.749015,17.185362 -15.749015,17.232616 C -15.749015,17.27987 -15.705821,17.318532 -15.653029,17.318532 C -15.600237,17.318532 -15.582251,17.27987 -15.61306,17.232616 z M -19.311927,16.997743 C -19.202747,16.975225 -19.043476,16.88354 -18.957992,16.794 C -18.867317,16.699024 -18.68211,16.631201 -18.513432,16.631201 C -18.335718,16.631201 -18.158566,16.562348 -18.05372,16.452529 C -17.929947,16.322884 -17.814667,16.286839 -17.633593,16.321168 C -17.446018,16.356729 -17.360443,16.326675 -17.289007,16.200146 C -17.122083,15.904489 -16.811427,15.902925 -16.480369,16.196074 C -16.124872,16.510864 -15.905291,16.540836 -15.946644,16.268927 C -15.963101,16.160718 -16.093018,16.021597 -16.247517,15.94674 C -16.397067,15.874279 -16.535113,15.806568 -16.554285,15.79627 C -16.616809,15.762685 -16.36763,15.265514 -16.192146,15.073716 C -16.097974,14.97079 -16.020925,14.813809 -16.020925,14.724869 C -16.020925,14.585264 -15.993878,14.57688 -15.823065,14.663535 C -15.654809,14.748894 -15.600825,14.735371 -15.46225,14.573149 C -15.307401,14.391878 -15.307099,14.372207 -15.456176,14.177788 C -15.657742,13.914917 -15.783069,13.916092 -15.967272,14.18258 C -16.04893,14.300715 -16.174318,14.397372 -16.245914,14.397372 C -16.401611,14.397372 -16.728665,14.659288 -17.613778,15.492807 C -17.977577,15.835399 -18.316149,16.115702 -18.36616,16.115702 C -18.416171,16.115702 -18.646265,16.270906 -18.87748,16.460599 C -19.108695,16.650293 -19.417075,16.863929 -19.562768,16.935346 C -19.847514,17.074926 -19.931439,17.206432 -19.669049,17.101885 C -19.581812,17.067125 -19.421106,17.020262 -19.311927,16.997743 z M -25.084588,16.883879 C -25.084588,16.839414 -25.125375,16.803034 -25.175225,16.803034 C -25.225075,16.803034 -25.265862,16.863309 -25.265862,16.936979 C -25.265862,17.010649 -25.225075,17.047029 -25.175225,17.017825 C -25.125375,16.98862 -25.084588,16.928345 -25.084588,16.883879 z M -22.628725,16.655634 C -22.359091,16.504653 -22.28473,16.373451 -22.468793,16.373451 C -22.52561,16.373451 -22.61738,16.319361 -22.672725,16.253252 C -22.833817,16.060831 -23.181219,15.99225 -23.181219,16.15287 C -23.181219,16.226936 -23.120039,16.287534 -23.045264,16.287534 C -22.970489,16.287534 -22.909309,16.321463 -22.909309,16.362931 C -22.909309,16.404399 -22.970489,16.486458 -23.045264,16.545284 C -23.382076,16.810256 -23.058124,16.896077 -22.628725,16.655634 z M -19.730167,16.490665 C -19.528038,16.282355 -19.525918,16.271839 -19.703704,16.359404 C -19.810002,16.411758 -19.920885,16.513662 -19.950111,16.585855 C -20.024268,16.769042 -19.982918,16.751146 -19.730167,16.490665 z M -23.53931,15.552749 C -23.383828,15.395865 -23.263266,15.347432 -23.115646,15.382553 C -22.858492,15.443733 -22.440032,15.350728 -22.50742,15.247371 C -22.534942,15.205158 -22.680094,15.17062 -22.82998,15.17062 C -22.979866,15.17062 -23.185092,15.12872 -23.286037,15.077509 C -23.520135,14.958748 -23.958684,15.119193 -24.237855,15.425735 C -24.41585,15.621181 -24.420554,15.649064 -24.284385,15.701559 C -23.987989,15.815825 -23.753651,15.769022 -23.53931,15.552749 z M -18.42595,15.505386 C -17.97267,15.128127 -18.028103,15.036486 -18.513432,15.360762 C -18.904024,15.621739 -19.021105,15.772036 -18.833814,15.772036 C -18.785699,15.772036 -18.60216,15.652043 -18.42595,15.505386 z M -11.738344,15.337935 C -11.408243,15.251036 -11.272661,15.02685 -11.511752,14.963263 C -11.574065,14.94669 -11.788194,14.88705 -11.987595,14.830728 C -12.47144,14.694063 -12.848643,14.820593 -12.848643,15.11956 C -12.848643,15.270005 -12.790156,15.34118 -12.64471,15.367735 C -12.276404,15.43498 -12.082803,15.428615 -11.738344,15.337935 z M -10.676246,14.67153 C -10.677832,14.591624 -10.734263,14.457353 -10.801649,14.37315 C -10.915644,14.230707 -10.928329,14.235763 -10.983943,14.445806 C -11.018147,14.574991 -10.998883,14.722764 -10.938906,14.791268 C -10.812478,14.935671 -10.672273,14.871756 -10.676246,14.67153 z M -10.084225,13.795956 C -10.115035,13.748702 -10.178622,13.71004 -10.22553,13.71004 C -10.272438,13.71004 -10.310817,13.748702 -10.310817,13.795956 C -10.310817,13.84321 -10.24723,13.881873 -10.169513,13.881873 C -10.091795,13.881873 -10.053416,13.84321 -10.084225,13.795956 z M -25.893162,25.702551 C -25.897098,25.611981 -25.875676,25.561236 -25.845558,25.589785 C -25.815441,25.618335 -25.812221,25.692437 -25.838403,25.754459 C -25.867336,25.822997 -25.888813,25.802639 -25.893162,25.702551 z M -25.900318,24.33499 C -25.900318,23.864974 -25.866525,23.682446 -25.773224,23.648507 C -25.703323,23.62308 -25.62175,23.625388 -25.591951,23.653635 C -25.495115,23.745427 -25.534755,24.09649 -25.653864,24.201961 C -25.718678,24.259353 -25.754885,24.427142 -25.735835,24.581825 C -25.717067,24.73421 -25.746398,24.885068 -25.801015,24.917066 C -25.869601,24.957247 -25.900318,24.777197 -25.900318,24.33499 z M -24.578784,24.145886 C -24.654349,23.860491 -24.567636,23.590437 -24.400433,23.590437 C -24.260474,23.590437 -24.143493,23.9145 -24.193895,24.162591 C -24.245223,24.415234 -24.510517,24.403719 -24.578784,24.145886 z M -25.900318,23.461562 C -25.900318,23.390681 -25.859532,23.332688 -25.809681,23.332688 C -25.759831,23.332688 -25.719045,23.390681 -25.719045,23.461562 C -25.719045,23.532443 -25.759831,23.590437 -25.809681,23.590437 C -25.859532,23.590437 -25.900318,23.532443 -25.900318,23.461562 z M -25.398995,22.933041 C -25.310341,22.442048 -25.061121,21.700274 -24.984812,21.700274 C -24.948143,21.700274 -24.856753,21.677944 -24.781724,21.650652 C -24.699422,21.620715 -24.60577,21.671059 -24.545638,21.777565 C -24.407699,22.021884 -24.61874,22.478012 -24.983697,22.724351 C -25.138888,22.829101 -25.265862,22.967885 -25.265862,23.03276 C -25.265862,23.097635 -25.309249,23.176132 -25.362279,23.2072 C -25.427694,23.245523 -25.4395,23.15737 -25.398995,22.933041 z M -25.79537,17.919948 C -25.79537,17.801813 -25.774798,17.753485 -25.749654,17.812552 C -25.724511,17.87162 -25.724511,17.968276 -25.749654,18.027344 C -25.774798,18.086411 -25.79537,18.038083 -25.79537,17.919948 z M -7.2449079,13.617173 C -7.7442713,13.37713 -7.7543002,13.280457 -7.2798392,13.280457 C -6.8811368,13.280457 -6.866625,13.289509 -6.866625,13.538206 C -6.866625,13.679969 -6.8768216,13.791742 -6.8892842,13.786593 C -6.9017467,13.781443 -7.0617775,13.705204 -7.2449079,13.617173 z"
         id="path2496" />
      <path
         style="fill:#4b2555"
         d="M -25.356498,26.082016 C -25.356498,25.940397 -24.83795,25.945911 -24.681255,26.089196 C -24.628586,26.137358 -24.742972,26.167932 -24.975824,26.167932 C -25.185195,26.167932 -25.356498,26.12927 -25.356498,26.082016 z M -22.637399,26.122986 C -22.637399,26.098266 -22.436881,25.791015 -22.191802,25.440206 C -21.719434,24.764052 -21.720078,24.692006 -22.199499,24.577946 L -22.440359,24.520641 L -22.391457,25.031863 C -22.342757,25.540965 -22.343787,25.543669 -22.639857,25.683676 C -23.022829,25.864778 -23.115743,25.860789 -23.37511,25.652109 L -23.589084,25.479952 L -23.351282,25.286964 C -23.211706,25.17369 -23.088527,24.96186 -23.053068,24.774125 C -23.019842,24.598207 -22.931899,24.422043 -22.857641,24.38265 C -22.738911,24.319665 -22.738481,24.275057 -22.854076,24.012806 C -23.019548,23.637402 -22.891814,23.108538 -22.538887,22.707804 C -22.281805,22.415898 -22.33262,22.415653 -21.715986,22.71179 C -21.682784,22.727736 -21.641998,22.676959 -21.625349,22.598955 C -21.598461,22.472979 -21.568957,22.476652 -21.361333,22.631833 C -21.232773,22.72792 -21.020317,22.832058 -20.889209,22.86325 C -20.7581,22.894443 -20.602521,22.97514 -20.543479,23.042577 C -20.450889,23.14833 -20.414536,23.146666 -20.279093,23.030474 C -20.08896,22.867369 -19.560323,22.77591 -19.243446,22.851299 C -19.044641,22.898597 -19.011934,22.953768 -19.011934,23.241816 C -19.011934,23.467121 -18.942261,23.65699 -18.799727,23.820115 C -18.423145,24.2511 -18.431594,24.680324 -18.824803,25.093976 C -18.91464,25.188484 -19.012912,25.365502 -19.043184,25.48735 C -19.073456,25.609197 -19.197253,25.751661 -19.318288,25.803936 C -19.61912,25.933866 -19.866562,25.684862 -19.808602,25.310526 C -19.73976,24.865898 -19.951947,24.810384 -20.365751,25.164762 C -20.562349,25.333126 -20.849749,25.532912 -21.004419,25.608729 C -21.159089,25.684547 -21.323662,25.841384 -21.370137,25.957256 C -21.447913,26.15117 -21.501689,26.167932 -22.046018,26.167932 C -22.371278,26.167932 -22.637399,26.147706 -22.637399,26.122986 z M -21.211597,26.111576 C -21.150233,26.088042 -21.027874,26.086609 -20.939687,26.108393 C -20.851501,26.130176 -20.901708,26.149432 -21.051258,26.151183 C -21.200809,26.152934 -21.272961,26.135111 -21.211597,26.111576 z M -20.643393,25.996099 C -20.533555,25.801552 -20.368562,25.775485 -20.208337,25.927366 C -20.025617,26.100571 -20.084882,26.167932 -20.419991,26.167932 C -20.712322,26.167932 -20.731904,26.15287 -20.643393,25.996099 z M -18.694706,26.082016 C -18.663897,26.034761 -18.579917,25.996099 -18.508083,25.996099 C -18.43625,25.996099 -18.377477,26.034761 -18.377477,26.082016 C -18.377477,26.12927 -18.461458,26.167932 -18.5641,26.167932 C -18.666742,26.167932 -18.725515,26.12927 -18.694706,26.082016 z M -17.833658,26.039057 C -17.7716,25.968176 -17.664639,25.910183 -17.595968,25.910183 C -17.527297,25.910183 -17.471111,25.968176 -17.471111,26.039057 C -17.471111,26.120851 -17.557945,26.167932 -17.708801,26.167932 C -17.909804,26.167932 -17.929075,26.148041 -17.833658,26.039057 z M -16.383471,26.082016 C -16.223779,25.984188 -15.708715,25.984188 -15.386469,26.082016 C -15.22737,26.130314 -15.362356,26.152963 -15.839652,26.158052 C -16.309249,26.16306 -16.477391,26.13955 -16.383471,26.082016 z M -14.885062,26.086471 C -14.918474,26.035225 -14.973582,26.00949 -15.007526,26.029283 C -15.041468,26.049076 -15.079233,25.935882 -15.091446,25.77774 C -15.10366,25.619599 -15.07307,25.466435 -15.023469,25.437376 C -14.886862,25.357346 -14.915559,25.22285 -15.06924,25.22285 C -15.144016,25.22285 -15.205195,25.273112 -15.205195,25.334542 C -15.205195,25.591546 -15.398955,25.636615 -15.701083,25.449887 C -15.964389,25.287153 -16.004308,25.211016 -16.045345,24.793268 C -16.085637,24.383118 -16.066147,24.301474 -15.897732,24.174907 C -15.723689,24.044111 -15.682363,24.042302 -15.496651,24.157342 C -15.308325,24.274002 -15.268294,24.269707 -15.053904,24.10985 C -14.606767,23.77645 -14.407872,23.929364 -14.364095,24.640191 C -14.339929,25.032577 -14.283055,25.174238 -14.047643,25.428394 C -13.880668,25.608665 -13.782479,25.792153 -13.812846,25.867168 C -13.867706,26.002685 -13.879024,26.006802 -14.27617,26.035738 C -14.413258,26.045726 -14.592671,26.082192 -14.674867,26.116772 C -14.757308,26.151457 -14.85155,26.137872 -14.885062,26.086471 z M -15.225802,24.657767 C -15.202231,24.418219 -15.207452,24.414331 -15.339098,24.573419 C -15.505899,24.77499 -15.520424,24.992904 -15.363809,24.944155 C -15.301497,24.924761 -15.239393,24.795886 -15.225802,24.657767 z M -11.85164,26.079319 C -11.85164,26.030582 -11.79046,25.968452 -11.715685,25.941252 C -11.627052,25.909011 -11.57973,25.775377 -11.57973,25.557324 C -11.57973,25.278406 -11.610312,25.22285 -11.763847,25.22285 C -12.178698,25.22285 -12.062911,24.804954 -11.498807,24.266265 C -11.318989,24.094549 -11.098584,23.852908 -11.00902,23.729287 C -10.919455,23.605666 -10.774301,23.504521 -10.686455,23.504521 C -10.59861,23.504521 -10.447565,23.447756 -10.3508,23.378378 C -10.187839,23.261539 -10.205796,23.252034 -10.594289,23.249503 C -11.090323,23.246272 -11.282566,23.093531 -11.13022,22.823695 C -10.982465,22.561991 -10.637383,22.513364 -10.290553,22.705374 L -9.9948279,22.869092 L -9.6316623,22.63077 C -9.4319209,22.499693 -9.1665296,22.256851 -9.0419042,22.091122 C -8.9172788,21.925392 -8.7419794,21.766459 -8.6523489,21.737936 C -8.452989,21.674495 -8.2261745,21.838672 -8.2261745,22.046417 C -8.2261745,22.162107 -8.1761739,22.188083 -8.0222421,22.152362 C -7.6996844,22.07751 -7.5732672,21.953746 -7.6868539,21.82401 C -7.7564393,21.744531 -7.7544616,21.618625 -7.6799229,21.382794 C -7.4889552,20.778593 -7.7049468,20.227682 -7.9574532,20.674923 C -8.0371083,20.816009 -8.0379394,20.916129 -7.9607868,21.076641 C -7.7399425,21.5361 -8.0782401,21.766496 -8.5465913,21.475601 C -8.8310725,21.29891 -8.8271878,21.213627 -8.5081061,20.630654 C -8.355464,20.351773 -8.2831405,20.130545 -8.33473,20.100321 C -8.3834118,20.071801 -8.4629119,20.086069 -8.5113962,20.132029 C -8.6088596,20.224417 -9.2943934,20.12974 -9.5810852,19.984297 C -9.8023419,19.872051 -10.22018,20.010942 -10.22018,20.196735 C -10.22018,20.35987 -10.593068,20.506498 -11.091365,20.539306 C -11.296342,20.552801 -11.570096,20.629709 -11.699709,20.710213 C -11.829323,20.790716 -12.098015,20.877261 -12.296802,20.902535 C -12.631709,20.945117 -12.662794,20.931262 -12.720387,20.713744 C -12.793136,20.438985 -12.709783,20.368521 -12.131799,20.216168 C -11.878369,20.149365 -11.716039,20.052305 -11.688048,19.950841 C -11.65219,19.820863 -11.582631,19.799127 -11.317252,19.834973 C -11.137588,19.859241 -10.921258,19.90563 -10.836518,19.938061 C -10.61123,20.024279 -10.368247,19.457699 -10.506847,19.169346 C -10.586782,19.003046 -10.566251,18.885122 -10.398906,18.549362 C -10.285248,18.32132 -10.142327,18.076746 -10.081303,18.005865 C -10.02028,17.934983 -9.9464859,17.761002 -9.9173181,17.61924 C -9.8881503,17.477478 -9.8385286,17.240759 -9.8070478,17.093199 C -9.7621002,16.882519 -9.7931305,16.786648 -9.9515498,16.646745 C -10.097717,16.517661 -10.163446,16.343062 -10.190159,16.012914 C -10.210438,15.762296 -10.250005,15.329224 -10.278088,15.050532 C -10.320889,14.625772 -10.295659,14.486817 -10.122093,14.191367 C -10.008214,13.997518 -9.8409441,13.788394 -9.7503818,13.726647 C -9.4023489,13.48935 -9.5874361,13.394715 -10.046629,13.575176 C -10.131367,13.608477 -10.280089,13.559464 -10.409175,13.455694 L -10.628045,13.279749 L -9.9029522,13.301582 L -9.1778591,13.323415 L -9.2007358,13.740024 C -9.2144138,13.989116 -9.2964146,14.25355 -9.4046683,14.397661 C -9.5923858,14.647557 -9.6446632,14.912871 -9.5061849,14.912871 C -9.356,14.912871 -9.2391431,14.697195 -9.0872225,14.139622 C -9.0035341,13.832471 -8.898275,13.538945 -8.8533138,13.487343 C -8.8083535,13.435741 -8.7984044,13.368082 -8.8312048,13.336989 C -8.8640062,13.305897 -8.6801127,13.280457 -8.4225542,13.280457 C -7.9230756,13.280457 -7.90588,13.291971 -8.0429063,13.534673 C -8.1084547,13.650772 -8.0881802,13.744429 -7.9650848,13.894169 C -7.5634648,14.382722 -7.4771996,14.661445 -7.5319396,15.293657 C -7.5608581,15.627646 -7.6112865,16.007232 -7.6440027,16.137181 C -7.7344318,16.496365 -7.4444045,16.444976 -7.2803314,16.072743 C -7.0647241,15.583596 -6.866625,15.678219 -6.866625,16.270351 C -6.866625,16.544425 -6.9155688,16.815062 -6.975389,16.871767 C -7.0599828,16.951955 -7.0599828,16.974867 -6.975389,16.974867 C -6.9019352,16.974867 -6.866625,17.156408 -6.866625,17.534052 C -6.866625,18.08122 -6.8707753,18.090914 -7.0597399,17.985113 C -7.2140171,17.898735 -7.2611074,17.898589 -7.2938852,17.984385 C -7.316451,18.043453 -7.3926954,18.091781 -7.4633159,18.091781 C -7.7049767,18.091781 -7.5918558,18.451889 -7.2266518,18.845176 L -6.8615856,19.238315 L -6.8704816,20.984701 C -6.8778404,22.429242 -6.9033301,22.753792 -7.0179574,22.862449 C -7.1185577,22.957811 -7.1300386,23.024077 -7.0598505,23.104245 C -7.0063196,23.165386 -6.9854252,23.365647 -7.0130376,23.552911 C -7.0504524,23.806652 -7.0387412,23.858951 -6.9661558,23.76227 C -6.8911839,23.66241 -6.8701589,23.710768 -6.8727665,23.977061 C -6.8760711,24.314394 -6.8787549,24.317165 -7.0183888,24.127415 C -7.2685377,23.787487 -8.0576602,23.942389 -8.2118584,24.361688 C -8.2842789,24.558614 -8.3943535,24.63061 -8.7894839,24.739495 C -9.1971892,24.851847 -9.3067617,24.926368 -9.4543408,25.191675 C -9.5515268,25.366387 -9.6982802,25.628522 -9.7804586,25.774196 C -9.8626379,25.91987 -9.9112137,26.068054 -9.8884059,26.103495 C -9.8655972,26.138935 -10.069305,26.167932 -10.341089,26.167932 C -10.696725,26.167932 -10.849867,26.131807 -10.887414,26.039057 C -10.916108,25.968176 -11.000764,25.910183 -11.075539,25.910183 C -11.159151,25.910183 -11.191408,25.9598 -11.159324,26.039057 C -11.118168,26.140721 -11.185751,26.167932 -11.479396,26.167932 C -11.684131,26.167932 -11.85164,26.128056 -11.85164,26.079319 z M -9.2730448,23.534071 C -9.1961877,23.243797 -9.3861403,23.04091 -9.6453393,23.136425 C -9.8136769,23.198458 -9.8185541,23.226004 -9.7067076,23.483041 C -9.5596179,23.82107 -9.3553973,23.845101 -9.2730448,23.534071 z M -7.2472989,17.129516 C -7.0939988,16.984199 -7.1122476,16.83098 -7.2905815,16.76611 C -7.4870237,16.694654 -7.7060516,16.902276 -7.6306701,17.088488 C -7.5622367,17.257534 -7.4005989,17.274833 -7.2472989,17.129516 z M -9.0419042,16.803034 C -9.0419042,16.755779 -9.0826907,16.717117 -9.1325408,16.717117 C -9.182391,16.717117 -9.2231775,16.755779 -9.2231775,16.803034 C -9.2231775,16.850288 -9.182391,16.88895 -9.1325408,16.88895 C -9.0826907,16.88895 -9.0419042,16.850288 -9.0419042,16.803034 z M -9.4044507,26.076283 C -9.4044507,25.969182 -8.9779301,25.400473 -8.7805018,25.24433 C -8.7058172,25.185262 -8.5100684,25.136934 -8.3455049,25.136934 C -8.1245264,25.136934 -7.9809507,25.066968 -7.7963493,24.869323 C -7.3291492,24.369109 -6.8610681,24.38653 -6.8729958,24.903686 C -6.8801752,25.214989 -6.9688867,25.472601 -7.0705574,25.477395 C -7.107945,25.479157 -7.1809547,25.4806 -7.2328024,25.4806 C -7.2846493,25.4806 -7.4950187,25.644915 -7.7002917,25.845745 C -7.9055637,26.046575 -8.047962,26.143231 -8.0167332,26.060536 C -7.9454475,25.871769 -8.2077798,25.85069 -8.2840342,26.039057 C -8.3412422,26.180374 -8.6793577,26.218935 -8.6793577,26.084142 C -8.6793577,26.0297 -8.7607883,26.0297 -8.9118497,26.084142 C -9.215303,26.193507 -9.4044507,26.190489 -9.4044507,26.076283 z M -7.3516189,26.03667 C -7.3032171,25.917107 -7.0433293,25.73835 -6.9179018,25.73835 C -6.8896993,25.73835 -6.866625,25.835006 -6.866625,25.953141 C -6.866625,26.134016 -6.9091118,26.167932 -7.1356907,26.167932 C -7.3397963,26.167932 -7.3919268,26.136243 -7.3516189,26.03667 z M -13.394499,25.845745 C -13.56966,25.696236 -13.678354,25.514826 -13.690499,25.351725 C -13.709094,25.101986 -13.69775,25.094204 -13.325434,25.101325 C -12.731064,25.112692 -12.438566,25.468905 -12.631748,25.946114 C -12.716745,26.156076 -13.088189,26.107198 -13.394499,25.845745 z M -17.650649,24.518292 C -17.750931,24.362377 -17.833132,24.205814 -17.833319,24.170373 C -17.833505,24.134933 -17.884641,24.105787 -17.946953,24.105605 C -18.108248,24.105134 -18.740024,23.340939 -18.740024,23.146309 C -18.740024,22.694858 -17.888931,23.013988 -17.285329,23.691768 C -16.894075,24.131104 -16.842433,24.35389 -17.085905,24.552093 C -17.402457,24.809786 -17.465595,24.806008 -17.650649,24.518292 z M -13.526743,24.224124 C -13.621974,24.133853 -13.664274,23.974549 -13.646513,23.773063 C -13.620133,23.473802 -13.60659,23.462531 -13.301826,23.486238 C -13.12735,23.499811 -12.80615,23.508759 -12.588047,23.506123 C -12.369944,23.503488 -12.135421,23.545445 -12.066886,23.599362 C -11.87918,23.747033 -11.910927,24.169903 -12.117591,24.274746 C -12.404031,24.42006 -13.356124,24.385858 -13.526743,24.224124 z M -24.450132,23.982132 C -24.450132,23.861208 -24.409345,23.76227 -24.359495,23.76227 C -24.309645,23.76227 -24.268859,23.837313 -24.268859,23.929032 C -24.268859,24.020752 -24.309645,24.11969 -24.359495,24.148894 C -24.410901,24.17901 -24.450132,24.106828 -24.450132,23.982132 z M -16.114466,23.568958 C -16.321762,23.250065 -16.3154,23.003937 -16.0965,22.873904 C -15.839604,22.721299 -15.658378,22.950961 -15.658378,23.429124 C -15.658378,23.93722 -15.839065,23.992618 -16.114466,23.568958 z M -17.539089,22.863028 C -18.162258,22.601842 -17.726546,22.295222 -16.937696,22.439814 C -16.573534,22.506563 -16.519426,22.544266 -16.519426,22.731272 C -16.519426,22.921215 -16.561368,22.948402 -16.881973,22.966276 C -17.081374,22.977393 -17.377076,22.930932 -17.539089,22.863028 z M -23.327511,22.521926 C -23.398922,22.345525 -23.298345,22.104197 -23.181859,22.172439 C -23.131657,22.20185 -23.090582,22.298676 -23.090582,22.387606 C -23.090582,22.599273 -23.257819,22.694083 -23.327511,22.521926 z M -13.293668,22.209492 C -13.413807,22.114672 -13.563508,22.009637 -13.626339,21.976079 C -13.689169,21.942522 -13.76671,21.816026 -13.798652,21.694979 C -13.846344,21.514243 -13.81446,21.456637 -13.62033,21.372792 C -13.309984,21.238753 -12.714591,21.242107 -12.595118,21.378568 C -12.543171,21.4379 -12.473091,21.590604 -12.439384,21.71791 C -12.391507,21.898732 -12.428673,21.997318 -12.609251,22.168491 C -12.885551,22.430403 -13.004722,22.437542 -13.293668,22.209492 z M -16.655381,22.228973 C -16.655381,22.11779 -16.373025,21.589144 -16.228498,21.429736 C -16.115844,21.305482 -16.124142,21.272082 -16.296014,21.157968 C -16.447826,21.057172 -16.479603,20.972959 -16.437075,20.784132 C -16.404086,20.637661 -16.436691,20.4422 -16.518781,20.29431 C -16.593912,20.15896 -16.655381,19.938933 -16.655381,19.805361 C -16.655381,19.531489 -16.802719,19.39991 -16.951485,19.540928 C -17.023107,19.608821 -17.018101,19.692227 -16.933397,19.842254 C -16.694062,20.266166 -17.156947,20.927025 -17.693202,20.927025 C -17.770452,20.927025 -17.833658,20.957955 -17.833658,20.995759 C -17.833658,21.115638 -17.621987,21.270692 -17.458333,21.270692 C -17.233822,21.270692 -17.180858,21.396278 -17.300444,21.645071 C -17.445274,21.946384 -17.835535,22.077839 -18.397825,22.014713 C -18.798842,21.969692 -18.927043,21.904534 -19.300313,21.556022 C -19.706975,21.176335 -19.743308,21.160075 -19.856678,21.307044 C -19.957291,21.437474 -20.011513,21.447263 -20.174726,21.364463 C -20.488388,21.205339 -20.661495,20.876942 -20.688039,20.390668 C -20.720787,19.790759 -20.714722,19.810111 -20.869985,19.810111 C -21.021492,19.810111 -21.057074,20.113679 -20.915303,20.196735 C -20.795922,20.266675 -20.798608,20.643869 -20.91899,20.714394 C -20.970868,20.744787 -20.988523,20.843695 -20.958223,20.934189 C -20.884249,21.155121 -21.275918,21.306988 -21.580457,21.175457 C -21.811947,21.075476 -22.093579,20.681756 -22.093579,20.458117 C -22.093579,20.192997 -21.615262,19.7242 -21.344756,19.724197 C -21.103975,19.724195 -21.096618,19.711251 -21.151723,19.384585 C -21.234181,18.895776 -21.145642,18.665384 -20.687363,18.176258 C -20.463779,17.937625 -20.280847,17.703117 -20.280847,17.65513 C -20.280847,17.533203 -19.56228,17.236782 -19.261185,17.234503 C -19.124097,17.233465 -19.011934,17.201244 -19.011934,17.1629 C -19.011934,16.981965 -18.631542,16.718089 -18.437324,16.764296 C -18.299792,16.797017 -18.178776,16.75535 -18.064895,16.636067 C -17.963662,16.530031 -17.783675,16.459367 -17.614821,16.459367 C -17.431603,16.459367 -17.29395,16.399423 -17.220236,16.287534 C -17.075606,16.068006 -16.819649,16.068006 -16.610063,16.287534 C -16.519835,16.382043 -16.39833,16.459367 -16.340053,16.459367 C -16.281774,16.459367 -16.134802,16.701008 -16.013447,16.996346 C -15.815014,17.479263 -15.769027,17.531019 -15.556656,17.510426 C -15.290711,17.48464 -15.166917,17.596579 -15.080012,17.941427 C -15.047263,18.071376 -14.962843,18.177698 -14.892412,18.177698 C -14.821981,18.177698 -14.676887,18.294139 -14.56998,18.436457 C -14.463073,18.578775 -14.334048,18.670871 -14.283256,18.641115 C -14.141638,18.558148 -13.762676,18.783999 -13.81726,18.918835 C -13.902991,19.130609 -13.699587,19.043204 -13.413737,18.745435 C -13.259868,18.58515 -13.079971,18.436787 -13.013968,18.415741 C -12.915577,18.384367 -12.916622,18.351453 -13.019766,18.233016 C -13.127922,18.108823 -13.124744,18.066743 -12.997107,17.93305 C -12.816161,17.743521 -12.804929,17.524651 -12.97301,17.463511 C -13.041412,17.43863 -13.296327,17.39075 -13.539489,17.357112 C -14.120333,17.276761 -14.590973,17.045311 -14.75143,16.761106 C -14.864276,16.561232 -14.863509,16.502292 -14.745454,16.302258 C -14.574566,16.012706 -14.27822,15.970549 -13.833279,16.172498 C -13.475221,16.335012 -13.41619,16.410028 -13.573736,16.502326 C -13.679502,16.564289 -13.697827,17.060783 -13.594347,17.060783 C -13.480213,17.060783 -13.230426,16.52785 -13.177992,16.172473 C -13.114276,15.740626 -12.979983,15.600202 -12.630705,15.600202 C -12.473198,15.600202 -12.124207,15.546078 -11.855171,15.479925 C -11.586134,15.413772 -11.317659,15.377236 -11.258557,15.398735 C -11.11032,15.452656 -10.950342,15.809167 -10.850546,16.307983 C -10.77684,16.676393 -10.790415,16.757942 -10.962088,16.978049 C -11.130838,17.19441 -11.14258,17.259794 -11.048017,17.45653 C -10.899615,17.765274 -10.976176,17.805667 -11.349019,17.615335 C -11.714707,17.428655 -11.839454,17.491584 -11.676357,17.780463 C -11.584841,17.942556 -11.584069,18.024846 -11.67259,18.181635 C -11.764691,18.344766 -11.759872,18.395578 -11.64473,18.475388 C -11.566183,18.529831 -11.492053,18.738744 -11.474639,18.95473 C -11.445773,19.312792 -11.45917,19.339262 -11.681631,19.363714 C -11.998908,19.398587 -12.214186,19.177154 -12.214186,18.815934 C -12.214186,18.620086 -12.256907,18.521363 -12.341656,18.521363 C -12.425189,18.521363 -12.452518,18.581564 -12.420942,18.696022 C -12.34168,18.983334 -12.636455,19.208696 -13.091525,19.208696 C -13.42434,19.208696 -13.500574,19.241078 -13.56892,19.411481 C -13.676463,19.679608 -14.324512,19.935025 -14.574933,19.807983 C -14.76713,19.710479 -14.811714,19.385571 -14.653478,19.235576 C -14.446274,19.039162 -14.720395,19.062912 -14.965289,19.262591 L -15.222793,19.472551 L -15.066471,19.78482 C -14.917247,20.082908 -14.917634,20.102276 -15.074996,20.211349 C -15.165661,20.274192 -15.311212,20.32561 -15.398443,20.32561 C -15.588395,20.32561 -15.698643,20.463713 -15.56922,20.539535 C -15.432548,20.619604 -15.457651,20.890681 -15.61306,21.012942 C -15.811644,21.169169 -15.7792,21.340593 -15.545083,21.372112 C -15.411229,21.390132 -15.34115,21.458614 -15.34115,21.571399 C -15.34115,21.70503 -15.411596,21.749568 -15.658015,21.771731 C -16.033746,21.805525 -16.202198,21.919639 -16.202198,22.140376 C -16.202198,22.255166 -16.267548,22.30169 -16.42879,22.30169 C -16.553415,22.30169 -16.655381,22.268967 -16.655381,22.228973 z M -18.070178,20.791241 C -18.111529,20.635065 -18.071856,20.496429 -17.93595,20.322179 C -17.705553,20.02678 -17.695314,19.931765 -17.886389,19.862261 C -18.285224,19.717184 -18.456323,19.965975 -18.397073,20.604839 C -18.36623,20.937407 -18.327042,21.012942 -18.185351,21.012942 C -18.043699,21.012942 -18.022356,20.971856 -18.070178,20.791241 z M -16.661609,18.510547 C -16.438237,18.436734 -16.319035,18.4391 -16.15852,18.520531 C -15.925882,18.638551 -15.470169,18.544597 -15.40724,18.36564 C -15.369442,18.258154 -15.705529,18.216981 -16.315494,18.254374 C -16.581581,18.270685 -16.655381,18.243997 -16.655381,18.13146 C -16.655381,18.052398 -16.757348,17.872842 -16.881973,17.732446 C -17.006598,17.592051 -17.108565,17.402823 -17.108565,17.311941 C -17.108565,17.100243 -17.571775,17.082562 -17.786459,17.286065 C -17.901249,17.394878 -18.031826,17.413065 -18.382071,17.369023 L -18.830661,17.312614 L -18.830661,17.573323 C -18.830661,17.858849 -18.715318,17.897969 -18.345021,17.738037 C -18.16063,17.658398 -18.059039,17.675993 -17.748752,17.841302 C -17.5129,17.966955 -17.354431,18.12143 -17.319758,18.259483 C -17.220344,18.655314 -17.164346,18.676675 -16.661609,18.510547 z M -10.514749,22.208891 C -10.687004,22.113788 -10.72862,21.828704 -10.582727,21.743232 C -10.438445,21.658705 -10.475717,21.536151 -10.714562,21.309744 C -10.986587,21.051886 -11.090094,21.045588 -11.221809,21.278884 C -11.305618,21.427326 -11.290124,21.488339 -11.133494,21.626662 C -10.982579,21.759939 -10.963001,21.828886 -11.038232,21.962136 C -11.149258,22.158788 -11.447388,22.18497 -11.520452,22.004485 C -11.548365,21.935531 -11.705616,21.846098 -11.869898,21.805746 C -12.453233,21.66246 -12.286184,21.262728 -11.557212,21.057521 C -11.307524,20.987233 -11.050271,20.888059 -10.985539,20.837134 C -10.832198,20.7165 -10.148442,20.902339 -10.045987,21.092497 C -10.005912,21.166877 -9.9457789,21.397247 -9.9123585,21.604429 C -9.8653652,21.895759 -9.8862724,22.017449 -10.004617,22.141408 C -10.176698,22.321653 -10.284648,22.335933 -10.514749,22.208891 z M -14.646826,21.996939 C -14.704679,21.876581 -14.752012,21.694386 -14.752012,21.592063 C -14.752012,21.48974 -14.856704,21.32689 -14.98466,21.230175 C -15.188794,21.075881 -15.205624,21.025196 -15.121975,20.816642 C -15.001132,20.515353 -14.791212,20.437183 -14.582885,20.615898 C -14.493579,20.69251 -14.375146,20.755192 -14.319701,20.755192 C -14.131963,20.755192 -14.104833,20.928079 -14.249449,21.202872 C -14.377937,21.44702 -14.378592,21.48442 -14.255512,21.549712 C -14.076749,21.644543 -14.078978,21.909181 -14.259985,22.080761 C -14.45558,22.26617 -14.524608,22.251213 -14.646826,21.996939 z M -25.900318,21.310953 C -25.900318,20.996849 -25.809742,20.934701 -25.637942,21.130927 C -25.517044,21.269014 -25.586979,21.494987 -25.771371,21.56206 C -25.867603,21.597064 -25.900318,21.533356 -25.900318,21.310953 z M -24.631405,21.136169 C -24.631405,20.99824 -24.426991,20.755192 -24.310988,20.755192 C -24.167735,20.755192 -24.146627,20.834924 -24.233237,21.048873 C -24.283499,21.173032 -24.631405,21.249308 -24.631405,21.136169 z M -9.887224,20.804443 C -10.210333,20.520591 -10.204004,20.32561 -9.8716817,20.32561 C -9.5383537,20.32561 -9.2375697,20.621407 -9.3694179,20.819545 C -9.5146051,21.037728 -9.625354,21.034498 -9.887224,20.804443 z M -23.266529,20.374652 C -23.339612,20.291179 -23.306407,20.142574 -23.138086,19.799823 C -23.013233,19.545584 -22.910682,19.295234 -22.910195,19.243491 C -22.908983,19.114798 -22.55956,18.824259 -22.487803,18.89228 C -22.455987,18.922439 -22.494541,19.112292 -22.57348,19.314176 C -22.652419,19.516059 -22.760716,19.841576 -22.814141,20.037547 C -22.917911,20.418193 -23.105816,20.558214 -23.266529,20.374652 z M -24.631066,20.132298 C -24.630615,19.87497 -24.305945,19.380529 -24.137425,19.380529 C -23.969536,19.380529 -23.785882,19.691847 -23.870286,19.833366 C -24.019128,20.082926 -24.31279,20.32561 -24.465931,20.32561 C -24.57721,20.32561 -24.631294,20.262297 -24.631066,20.132298 z M -13.432726,19.903781 C -13.52792,19.757775 -13.378857,19.564675 -13.099761,19.472449 C -12.832625,19.384174 -12.032913,19.342205 -12.032913,19.41646 C -12.032913,19.436222 -12.009214,19.510934 -11.980249,19.582485 C -11.902316,19.774999 -12.394053,19.981944 -12.929429,19.981944 C -13.178214,19.981944 -13.404697,19.946771 -13.432726,19.903781 z M -21.731033,19.12785 C -21.731033,18.808767 -21.589979,18.719173 -21.457381,18.954032 C -21.381471,19.088483 -21.383122,19.164847 -21.463931,19.257146 C -21.633148,19.450421 -21.731033,19.403038 -21.731033,19.12785 z M -23.797928,18.235912 C -23.857651,18.038505 -23.916666,17.780334 -23.929073,17.662198 C -23.949901,17.463875 -23.91923,17.445423 -23.529013,17.421527 C -23.118907,17.396412 -23.099683,17.406315 -22.879709,17.755985 C -22.755032,17.954171 -22.672145,18.163559 -22.695516,18.22129 C -22.747217,18.349004 -23.142758,18.52815 -23.457939,18.566603 C -23.66046,18.59131 -23.702893,18.550037 -23.797928,18.235912 z M -21.731033,17.662198 C -21.731033,17.614944 -21.695195,17.576282 -21.651392,17.576282 C -21.60759,17.576282 -21.521069,17.460295 -21.459123,17.318532 C -21.397177,17.17677 -21.312017,17.060783 -21.269879,17.060783 C -21.227741,17.060783 -20.986609,16.886802 -20.73403,16.674159 C -20.255355,16.271168 -20.150402,16.225983 -20.050156,16.379738 C -19.960529,16.517205 -21.295017,17.748115 -21.533679,17.748115 C -21.642224,17.748115 -21.731033,17.709453 -21.731033,17.662198 z M -25.900318,16.588785 C -25.900318,16.316953 -25.871803,16.286879 -25.531758,16.200083 C -25.32905,16.148342 -25.012955,16.117855 -24.829324,16.132334 L -24.49545,16.15866 L -25.03927,16.458624 C -25.892337,16.929164 -25.900318,16.930371 -25.900318,16.588785 z M -15.549614,16.699934 C -15.609435,16.643229 -15.658378,16.510923 -15.658378,16.405921 C -15.658378,16.289494 -15.799829,16.100237 -16.020925,15.920842 C -16.220326,15.759052 -16.383471,15.583403 -16.383471,15.530513 C -16.383471,15.477623 -16.256887,15.297685 -16.102173,15.130651 C -15.621369,14.611564 -14.972613,14.785154 -14.759375,15.489948 C -14.675529,15.767079 -14.882923,16.341107 -15.178908,16.651135 C -15.350126,16.830476 -15.404368,16.837616 -15.549614,16.699934 z M -19.406067,16.431463 C -19.126329,16.121954 -18.286841,15.552595 -18.286841,15.67238 C -18.286841,15.804811 -19.357252,16.717117 -19.512634,16.717117 C -19.632988,16.717117 -19.611019,16.658227 -19.406067,16.431463 z M -13.665421,16.071546 C -13.739787,15.986607 -13.760377,15.810588 -13.72476,15.564267 C -13.684839,15.288181 -13.70588,15.159006 -13.80325,15.082404 C -13.876418,15.024843 -13.936282,14.880992 -13.936282,14.762736 C -13.936282,14.573898 -13.905943,14.553529 -13.687032,14.595406 C -13.549944,14.621631 -13.364333,14.670016 -13.274562,14.702929 C -13.137603,14.753144 -13.1202,14.729324 -13.16639,14.554874 C -13.204218,14.412007 -13.158944,14.271667 -13.021655,14.106222 C -12.858208,13.909254 -12.773506,13.874638 -12.555928,13.915887 C -12.409659,13.943618 -12.212329,13.926911 -12.117418,13.878762 C -11.987587,13.812897 -11.856279,13.834052 -11.587168,13.964192 C -11.110079,14.194909 -11.063998,14.292042 -11.319306,14.528808 C -11.568786,14.760171 -11.711923,14.794144 -12.053886,14.703162 C -12.190047,14.666935 -12.452022,14.67105 -12.636055,14.712306 C -12.923184,14.776674 -12.988599,14.838333 -13.097094,15.146868 C -13.171966,15.359788 -13.29608,15.528246 -13.401427,15.559941 C -13.549213,15.604404 -13.569474,15.663241 -13.521125,15.907541 C -13.457319,16.229949 -13.492112,16.269495 -13.665421,16.071546 z M -19.465117,15.814994 C -19.403059,15.744113 -19.311498,15.686119 -19.261648,15.686119 C -19.211088,15.686119 -19.220903,15.743104 -19.283844,15.814994 C -19.345902,15.885875 -19.437463,15.943869 -19.487313,15.943869 C -19.537873,15.943869 -19.528058,15.886884 -19.465117,15.814994 z M -7.1247255,15.401184 C -7.1955771,15.320259 -7.1963384,15.191937 -7.1274002,14.950123 C -6.9680329,14.39111 -6.866625,14.403352 -6.866625,14.981604 C -6.866625,15.509791 -6.9338946,15.619147 -7.1247255,15.401184 z M -22.123792,15.371092 C -22.243893,15.257245 -22.179012,15.085064 -21.904215,14.788387 L -21.624215,14.486092 L -20.809546,14.517128 C -19.878759,14.552589 -19.661744,14.659822 -19.996319,14.918969 C -20.114004,15.010123 -20.280549,15.084703 -20.366418,15.084703 C -20.452288,15.084703 -20.551712,15.112352 -20.58736,15.146144 C -20.772458,15.321602 -21.988222,15.499601 -22.123792,15.371092 z M -25.175225,14.783996 L -25.175225,14.483288 L -24.518109,14.491852 C -24.156696,14.496562 -23.759073,14.527292 -23.634503,14.560141 C -23.409894,14.619368 -23.411011,14.621797 -23.768838,14.852284 C -24.057938,15.038502 -24.233587,15.084703 -24.652445,15.084703 L -25.175225,15.084703 L -25.175225,14.783996 z M -15.001263,14.851177 C -15.32938,14.792975 -15.24646,14.50321 -14.782913,14.088151 C -14.314281,13.668539 -14.115918,13.625676 -13.842425,13.884926 C -13.663095,14.054916 -13.662461,14.067166 -13.819765,14.322447 C -14.04971,14.695612 -14.568767,14.927894 -15.001263,14.851177 z M -18.194386,14.008671 C -18.131329,13.936648 -18.061071,13.895413 -18.038258,13.917038 C -17.975401,13.976621 -18.103112,14.139622 -18.212651,14.139622 C -18.272752,14.139622 -18.265876,14.090325 -18.194386,14.008671 z M -15.205195,13.898294 C -15.205195,13.860071 -15.146761,13.75375 -15.075342,13.662023 C -14.96792,13.524058 -14.924863,13.514799 -14.826091,13.608428 C -14.727319,13.702056 -14.737086,13.742871 -14.882631,13.844698 C -15.079037,13.982109 -15.205195,14.003071 -15.205195,13.898294 z M -11.53237,13.66105 C -11.658118,13.532432 -11.761003,13.394182 -11.761003,13.353828 C -11.761003,13.313474 -11.582615,13.280457 -11.364586,13.280457 L -10.968168,13.280457 L -11.027028,13.553262 C -11.104859,13.913996 -11.253973,13.945802 -11.53237,13.66105 z M -25.848526,13.575028 C -25.881864,13.449116 -25.89166,13.329528 -25.870296,13.309276 C -25.848932,13.289024 -25.804175,13.375473 -25.770837,13.501385 C -25.737499,13.627297 -25.727702,13.746885 -25.749067,13.767137 C -25.770431,13.787389 -25.815188,13.70094 -25.848526,13.575028 z M -15.967272,13.495248 C -15.883934,13.374682 -15.733915,13.281656 -15.625295,13.283189 C -15.445139,13.285733 -15.442731,13.293797 -15.590401,13.400057 C -15.677639,13.462831 -15.749015,13.558257 -15.749015,13.612116 C -15.749015,13.665974 -15.831528,13.71004 -15.932378,13.71004 C -16.107132,13.71004 -16.10877,13.699955 -15.967272,13.495248 z M -13.935691,13.541627 C -14.11087,13.414047 -14.131252,13.367797 -14.026327,13.335954 C -13.733794,13.247175 -13.573736,13.308573 -13.573736,13.509568 C -13.573736,13.751445 -13.639583,13.757277 -13.935691,13.541627 z M -6.9572616,13.443098 C -6.9572616,13.390788 -7.018396,13.370227 -7.093116,13.397406 C -7.167835,13.424586 -7.3207843,13.411842 -7.4330034,13.369086 C -7.6038489,13.303993 -7.5743811,13.290463 -7.2518307,13.285903 C -6.9672969,13.28188 -6.866625,13.314138 -6.866625,13.409332 C -6.866625,13.480213 -6.8870182,13.538206 -6.9119433,13.538206 C -6.9368684,13.538206 -6.9572616,13.495408 -6.9572616,13.443098 z M -17.788339,13.366373 C -17.75753,13.319119 -17.691536,13.280457 -17.641686,13.280457 C -17.591836,13.280457 -17.576257,13.319119 -17.607066,13.366373 C -17.637875,13.413628 -17.703869,13.45229 -17.753719,13.45229 C -17.803569,13.45229 -17.819148,13.413628 -17.788339,13.366373 z M -17.199201,13.371444 C -17.199201,13.321401 -17.158415,13.280457 -17.108565,13.280457 C -17.058714,13.280457 -17.017928,13.297506 -17.017928,13.318345 C -17.017928,13.339183 -17.058714,13.380127 -17.108565,13.409332 C -17.158415,13.438536 -17.199201,13.421487 -17.199201,13.371444 z"
         id="path2494" />
    </g>
  </g>
</svg>
