<?xml version="1.0" encoding="UTF-8" standalone="no"?>
<!-- Generator: Adobe Illustrator 9.0, SVG Export Plug-In  -->
<svg
   xmlns:dc="http://purl.org/dc/elements/1.1/"
   xmlns:cc="http://creativecommons.org/ns#"
   xmlns:rdf="http://www.w3.org/1999/02/22-rdf-syntax-ns#"
   xmlns:svg="http://www.w3.org/2000/svg"
   xmlns="http://www.w3.org/2000/svg"
   xmlns:xlink="http://www.w3.org/1999/xlink"
   xmlns:sodipodi="http://sodipodi.sourceforge.net/DTD/sodipodi-0.dtd"
   xmlns:inkscape="http://www.inkscape.org/namespaces/inkscape"
   width="48.000000px"
   height="48.000000px"
   xml:space="preserve"
   id="svg16168"
   sodipodi:version="0.32"
   inkscape:version="0.46"
   sodipodi:docname="image_view.svg"
   sodipodi:docbase="/home/jimmac/src/cvs/tango-icon-theme/scalable/mimetypes"
   inkscape:output_extension="org.inkscape.output.svg.inkscape"><metadata
   id="metadata16236">
  <rdf:RDF>
    <cc:Work
   rdf:about="">
      <dc:format>image/svg+xml</dc:format>



      <dc:type
   rdf:resource="http://purl.org/dc/dcmitype/StillImage" />



    <dc:title>Genric Image</dc:title>
<dc:creator>
  <cc:Agent>
    <dc:title>Jakub Steiner</dc:title>
  </cc:Agent>
</dc:creator>
<dc:subject>
  <rdf:Bag><rdf:li>image</rdf:li><rdf:li>picture</rdf:li><rdf:li>snapshot</rdf:li><rdf:li>photo</rdf:li></rdf:Bag>
</dc:subject>
<cc:license
   rdf:resource="http://creativecommons.org/licenses/by-sa/2.0/" />
</cc:Work>



  
<cc:License
   rdf:about="http://creativecommons.org/licenses/by/2.0/"><cc:permits
     rdf:resource="http://web.resource.org/cc/Reproduction" /><cc:permits
     rdf:resource="http://web.resource.org/cc/Distribution" /><cc:requires
     rdf:resource="http://web.resource.org/cc/Notice" /><cc:requires
     rdf:resource="http://web.resource.org/cc/Attribution" /><cc:permits
     rdf:resource="http://web.resource.org/cc/DerivativeWorks" /><cc:requires
     rdf:resource="http://web.resource.org/cc/ShareAlike" /></cc:License></rdf:RDF>



</metadata>



<defs
   id="defs16234"><inkscape:perspective
   sodipodi:type="inkscape:persp3d"
   inkscape:vp_x="0 : 24 : 1"
   inkscape:vp_y="0 : 1000 : 0"
   inkscape:vp_z="48 : 24 : 1"
   inkscape:persp3d-origin="24 : 16 : 1"
   id="perspective80" /><radialGradient
   inkscape:collect="always"
   xlink:href="#linearGradient5060"
   id="radialGradient6719"
   gradientUnits="userSpaceOnUse"
   gradientTransform="matrix(-2.774389,0,0,1.969706,112.7623,-872.8854)"
   cx="605.71429"
   cy="486.64789"
   fx="605.71429"
   fy="486.64789"
   r="117.14286" /><linearGradient
   inkscape:collect="always"
   id="linearGradient5060"><stop
     style="stop-color:black;stop-opacity:1;"
     offset="0"
     id="stop5062" /><stop
     style="stop-color:black;stop-opacity:0;"
     offset="1"
     id="stop5064" /></linearGradient><radialGradient
   inkscape:collect="always"
   xlink:href="#linearGradient5060"
   id="radialGradient6717"
   gradientUnits="userSpaceOnUse"
   gradientTransform="matrix(2.774389,0,0,1.969706,-1891.633,-872.8854)"
   cx="605.71429"
   cy="486.64789"
   fx="605.71429"
   fy="486.64789"
   r="117.14286" /><linearGradient
   id="linearGradient5048"><stop
     style="stop-color:black;stop-opacity:0;"
     offset="0"
     id="stop5050" /><stop
     id="stop5056"
     offset="0.5"
     style="stop-color:black;stop-opacity:1;" /><stop
     style="stop-color:black;stop-opacity:0;"
     offset="1"
     id="stop5052" /></linearGradient><linearGradient
   inkscape:collect="always"
   xlink:href="#linearGradient5048"
   id="linearGradient6715"
   gradientUnits="userSpaceOnUse"
   gradientTransform="matrix(2.774389,0,0,1.969706,-1892.179,-872.8854)"
   x1="302.85715"
   y1="366.64789"
   x2="302.85715"
   y2="609.50507" /><linearGradient
   id="linearGradient8171"><stop
     style="stop-color:#bbbdba;stop-opacity:1;"
     offset="0"
     id="stop8173" /><stop
     style="stop-color:#70746e;stop-opacity:1;"
     offset="1"
     id="stop8175" /></linearGradient><linearGradient
   inkscape:collect="always"
   id="linearGradient8155"><stop
     style="stop-color:#ffffff;stop-opacity:1;"
     offset="0"
     id="stop8157" /><stop
     style="stop-color:#ffffff;stop-opacity:0;"
     offset="1"
     id="stop8159" /></linearGradient><linearGradient
   id="linearGradient2224"><stop
     style="stop-color:#7c7c7c;stop-opacity:1;"
     offset="0"
     id="stop2226" /><stop
     style="stop-color:#b8b8b8;stop-opacity:1;"
     offset="1"
     id="stop2228" /></linearGradient><linearGradient
   inkscape:collect="always"
   id="linearGradient2251"><stop
     style="stop-color:#ffffff;stop-opacity:1;"
     offset="0"
     id="stop2253" /><stop
     style="stop-color:#ffffff;stop-opacity:0;"
     offset="1"
     id="stop2255" /></linearGradient><linearGradient
   id="linearGradient7648"
   gradientUnits="userSpaceOnUse"
   x1="21.9326"
   y1="24.6274"
   x2="21.9326"
   y2="7.1091"
   style="stroke-dasharray:none;stroke-miterlimit:4.0000000;stroke-width:1.2166667">
			<stop
   offset="0"
   style="stop-color:#8595bc;stop-opacity:1;"
   id="stop7650" />




			<stop
   offset="1"
   style="stop-color:#041a3b;stop-opacity:1;"
   id="stop7652" />




		</linearGradient><linearGradient
   id="linearGradient2392"><stop
     id="stop2394"
     offset="0.0000000"
     style="stop-color:#715b26;stop-opacity:1.0000000;" /><stop
     id="stop2396"
     offset="1.0000000"
     style="stop-color:#312710;stop-opacity:1.0000000;" /></linearGradient><linearGradient
   inkscape:collect="always"
   id="linearGradient12129"><stop
     style="stop-color:#000000;stop-opacity:1;"
     offset="0"
     id="stop12131" /><stop
     style="stop-color:#000000;stop-opacity:0;"
     offset="1"
     id="stop12133" /></linearGradient>
		
		<linearGradient
   style="stroke-dasharray:none;stroke-miterlimit:4.0000000;stroke-width:1.2166667"
   y2="36.0328"
   x2="31.0813"
   y1="3.7319"
   x1="12.4873"
   gradientUnits="userSpaceOnUse"
   id="aigrd1">
			<stop
   id="stop16177"
   style="stop-color:#D2D2D2;stroke-dasharray:none;stroke-miterlimit:4.0000000;stroke-width:1.2166667"
   offset="0" />




			<stop
   id="stop16179"
   style="stop-color:#EDEDED;stroke-dasharray:none;stroke-miterlimit:4.0000000;stroke-width:1.2166667"
   offset="1" />




		</linearGradient>




		
		<linearGradient
   style="stroke-dasharray:none;stroke-miterlimit:4.0000000;stroke-width:1.2166667"
   y2="22.5769"
   x2="21.9168"
   y1="30.3413"
   x1="21.877"
   gradientUnits="userSpaceOnUse"
   id="aigrd2">
			<stop
   id="stop16184"
   style="stop-color:#5e4f07;stop-opacity:1.0000000;"
   offset="0.0000000" />




			<stop
   id="stop16186"
   style="stop-color:#348a31;stop-opacity:1.0000000;"
   offset="1.0000000" />




		</linearGradient>




		
		
		
		
		
		<linearGradient
   style="stroke-dasharray:none;stroke-miterlimit:4.0000000;stroke-width:1.2166667"
   y2="7.1091"
   x2="21.9326"
   y1="24.6274"
   x1="21.9326"
   gradientUnits="userSpaceOnUse"
   id="aigrd3">
			<stop
   id="stop16199"
   style="stop-color:#D0D6E5;stroke-dasharray:none;stroke-miterlimit:4.0000000;stroke-width:1.2166667"
   offset="0" />




			<stop
   id="stop16201"
   style="stop-color:#093A80;stroke-dasharray:none;stroke-miterlimit:4.0000000;stroke-width:1.2166667"
   offset="1" />




		</linearGradient>




		
		
		
		
		
		
		
	











<radialGradient
   inkscape:collect="always"
   xlink:href="#linearGradient12129"
   id="radialGradient12135"
   cx="24.218407"
   cy="41.636040"
   fx="24.218407"
   fy="41.636040"
   r="22.097088"
   gradientTransform="matrix(1.000000,0.000000,0.000000,0.184000,0.000000,33.97501)"
   gradientUnits="userSpaceOnUse" /><linearGradient
   inkscape:collect="always"
   xlink:href="#linearGradient7648"
   id="linearGradient7671"
   gradientUnits="userSpaceOnUse"
   gradientTransform="matrix(1.098989,0,0,-0.797757,-1.953865,37.324)"
   x1="21.9326"
   y1="24.627399"
   x2="21.9326"
   y2="7.1090999" /><linearGradient
   inkscape:collect="always"
   xlink:href="#aigrd3"
   id="linearGradient7673"
   gradientUnits="userSpaceOnUse"
   gradientTransform="matrix(1.098989,0,0,1.106697,-1.953865,-4.922453)"
   x1="21.9326"
   y1="24.6274"
   x2="21.9326"
   y2="7.1091" /><linearGradient
   inkscape:collect="always"
   xlink:href="#aigrd1"
   id="linearGradient8148"
   gradientUnits="userSpaceOnUse"
   gradientTransform="matrix(1.434003,0,0,0.990087,52.32167,2.838918)"
   x1="12.4873"
   y1="3.7319"
   x2="31.0813"
   y2="36.0328" /><radialGradient
   inkscape:collect="always"
   xlink:href="#linearGradient8155"
   id="radialGradient8161"
   cx="12.700491"
   cy="10.404876"
   fx="12.700491"
   fy="10.404876"
   r="19.96875"
   gradientTransform="matrix(1.710531,0,0,1.124849,-11.56833,1.802582)"
   gradientUnits="userSpaceOnUse" /><linearGradient
   inkscape:collect="always"
   xlink:href="#linearGradient2251"
   id="linearGradient8166"
   gradientUnits="userSpaceOnUse"
   gradientTransform="translate(5.14757,-3.409792)"
   x1="33.396004"
   y1="36.921333"
   x2="34.170048"
   y2="38.070381" /><linearGradient
   inkscape:collect="always"
   xlink:href="#linearGradient2224"
   id="linearGradient8169"
   gradientUnits="userSpaceOnUse"
   gradientTransform="translate(5.14757,-3.034792)"
   x1="35.996582"
   y1="40.458221"
   x2="33.664921"
   y2="37.770721" /><linearGradient
   inkscape:collect="always"
   xlink:href="#linearGradient8171"
   id="linearGradient8177"
   x1="42.1875"
   y1="31"
   x2="45"
   y2="39.984692"
   gradientUnits="userSpaceOnUse" /><inkscape:perspective
   id="perspective2460"
   inkscape:persp3d-origin="372.04724 : 350.78739 : 1"
   inkscape:vp_z="744.09448 : 526.18109 : 1"
   inkscape:vp_y="0 : 1000 : 0"
   inkscape:vp_x="0 : 526.18109 : 1"
   sodipodi:type="inkscape:persp3d" /><inkscape:perspective
   id="perspective2491"
   inkscape:persp3d-origin="372.04724 : 350.78739 : 1"
   inkscape:vp_z="744.09448 : 526.18109 : 1"
   inkscape:vp_y="0 : 1000 : 0"
   inkscape:vp_x="0 : 526.18109 : 1"
   sodipodi:type="inkscape:persp3d" /><inkscape:perspective
   id="perspective2470"
   inkscape:persp3d-origin="372.04724 : 350.78739 : 1"
   inkscape:vp_z="744.09448 : 526.18109 : 1"
   inkscape:vp_y="0 : 1000 : 0"
   inkscape:vp_x="0 : 526.18109 : 1"
   sodipodi:type="inkscape:persp3d" /></defs>



<sodipodi:namedview
   inkscape:window-height="895"
   inkscape:window-width="1137"
   inkscape:pageshadow="2"
   inkscape:pageopacity="0.0"
   borderopacity="0.07058824"
   bordercolor="#666666"
   pagecolor="#ffffff"
   id="base"
   inkscape:zoom="1.09"
   inkscape:cx="15.47984"
   inkscape:cy="28.692292"
   inkscape:window-x="1335"
   inkscape:window-y="45"
   inkscape:current-layer="svg16168"
   showgrid="false"
   inkscape:showpageshadow="false" />




	
	<g
   style="display:inline"
   transform="matrix(2.175112e-2,0,0,2.493263e-2,42.41049,33.81117)"
   id="g6707"><rect
     style="opacity:0.40206185;fill:url(#linearGradient6715);fill-opacity:1;fill-rule:nonzero;stroke:none;stroke-width:1;stroke-linecap:round;stroke-linejoin:miter;marker:none;marker-start:none;marker-mid:none;marker-end:none;stroke-miterlimit:4;stroke-dasharray:none;stroke-dashoffset:0;stroke-opacity:1;visibility:visible;display:inline;overflow:visible"
     id="rect6709"
     width="1339.6335"
     height="478.35718"
     x="-1559.2523"
     y="-150.69685" /><path
     style="opacity:0.40206185;fill:url(#radialGradient6717);fill-opacity:1;fill-rule:nonzero;stroke:none;stroke-width:1;stroke-linecap:round;stroke-linejoin:miter;marker:none;marker-start:none;marker-mid:none;marker-end:none;stroke-miterlimit:4;stroke-dasharray:none;stroke-dashoffset:0;stroke-opacity:1;visibility:visible;display:inline;overflow:visible"
     d="M -219.61876,-150.68038 C -219.61876,-150.68038 -219.61876,327.65041 -219.61876,327.65041 C -76.744594,328.55086 125.78146,220.48075 125.78138,88.454235 C 125.78138,-43.572302 -33.655436,-150.68036 -219.61876,-150.68038 z"
     id="path6711"
     sodipodi:nodetypes="cccc" /><path
     sodipodi:nodetypes="cccc"
     id="path6713"
     d="M -1559.2523,-150.68038 C -1559.2523,-150.68038 -1559.2523,327.65041 -1559.2523,327.65041 C -1702.1265,328.55086 -1904.6525,220.48075 -1904.6525,88.454235 C -1904.6525,-43.572302 -1745.2157,-150.68036 -1559.2523,-150.68038 z"
     style="opacity:0.40206185;fill:url(#radialGradient6719);fill-opacity:1;fill-rule:nonzero;stroke:none;stroke-width:1;stroke-linecap:round;stroke-linejoin:miter;marker:none;marker-start:none;marker-mid:none;marker-end:none;stroke-miterlimit:4;stroke-dasharray:none;stroke-dashoffset:0;stroke-opacity:1;visibility:visible;display:inline;overflow:visible" /></g><path
   style="fill:url(#linearGradient8148);fill-opacity:1;fill-rule:nonzero;stroke:#bbbfbb;stroke-width:0.99999994;stroke-linecap:butt;stroke-linejoin:miter;marker:none;marker-start:none;marker-mid:none;marker-end:none;stroke-miterlimit:4;stroke-dashoffset:0;stroke-opacity:1;visibility:visible;display:inline;overflow:visible"
   d="M 2.7177715,6.454775 L 43.379544,6.454775 C 44.002793,6.454775 44.504543,6.956525 44.504543,7.579774 L 44.504543,31.480581 C 44.504543,32.103831 36.047842,39.499872 35.424593,39.499872 L 2.7177715,39.499872 C 2.0945221,39.499872 1.5927727,38.998122 1.5927727,38.374872 L 1.5927727,7.579774 C 1.5927727,6.956525 2.0945221,6.454775 2.7177715,6.454775 z"
   id="rect7603"
   sodipodi:nodetypes="ccccccccc" />




















































<g
   id="g7654"
   transform="matrix(1.054774,0,0,1.049989,-0.814647,4.485012)"><path
     id="path7644"
     d="M 5.512695,30 L 39.643234,30 L 39.643234,19.627375 L 5.512695,19.627375 L 5.512695,30 z"
     style="fill:url(#linearGradient7671);fill-opacity:1;fill-rule:nonzero;stroke:none;stroke-width:1.2166667;stroke-miterlimit:4" /><path
     style="fill:url(#linearGradient7673);fill-rule:nonzero;stroke:none;stroke-width:1.2166667;stroke-miterlimit:4"
     d="M 5.512695,5.237844 L 39.643234,5.237844 L 39.643234,19.627375 L 5.512695,19.627375 L 5.512695,5.237844 z"
     id="path16203" /><g
     id="g16205"
     style="fill-rule:nonzero;stroke:#000000;stroke-width:1.15611064;stroke-miterlimit:4"
     transform="matrix(1.189217,0,0,1.189217,-3.525355,-6.535408)">
			<g
   id="g16207">
				<path
   style="opacity:0.04999994;fill:#e8f52f;stroke:none"
   d="M 18.4,15.4 C 18.4,17.6 16.6,19.5 14.3,19.5 C 12.1,19.5 10.2,17.7 10.2,15.4 C 10.2,13.2 12,11.3 14.3,11.3 C 16.5,11.3 18.4,13.1 18.4,15.4 z"
   id="path16209" />




				<path
   style="opacity:0.20829994;fill:#ecf751;stroke:none"
   d="M 18,15.4 C 18,17.4 16.4,19.1 14.3,19.1 C 12.3,19.1 10.6,17.5 10.6,15.4 C 10.6,13.4 12.2,11.7 14.3,11.7 C 16.3,11.7 18,13.3 18,15.4 L 18,15.4 z"
   id="path16211" />




				<path
   style="opacity:0.36669994;fill:#f0f972;stroke:none"
   d="M 17.6,15.4 C 17.6,17.2 16.1,18.7 14.3,18.7 C 12.5,18.7 11,17.2 11,15.4 C 11,13.6 12.5,12.1 14.3,12.1 C 16.1,12.1 17.6,13.6 17.6,15.4 L 17.6,15.4 z"
   id="path16213" />




				<path
   style="opacity:0.525;fill:#f4fa95;stroke:none"
   d="M 17.2,15.4 C 17.2,17 15.9,18.3 14.3,18.3 C 12.7,18.3 11.4,17 11.4,15.4 C 11.4,13.8 12.7,12.5 14.3,12.5 C 15.9,12.5 17.2,13.8 17.2,15.4 z"
   id="path16215" />




				<path
   style="opacity:0.6833;fill:#f7fcb7;stroke:none"
   d="M 16.8,15.4 C 16.8,16.8 15.7,17.9 14.3,17.9 C 12.9,17.9 11.8,16.8 11.8,15.4 C 11.8,14 12.9,12.9 14.3,12.9 C 15.7,12.9 16.8,14 16.8,15.4 L 16.8,15.4 z"
   id="path16217" />




				<path
   style="opacity:0.8417;fill:#fbfddb;stroke:none"
   d="M 16.4,15.4 C 16.4,16.6 15.4,17.5 14.3,17.5 C 13.2,17.5 12.2,16.5 12.2,15.4 C 12.2,14.3 13.2,13.3 14.3,13.3 C 15.4,13.3 16.4,14.3 16.4,15.4 z"
   id="path16219" />




				<path
   style="fill:#ffffff;stroke:none"
   d="M 16,15.4 C 16,16.4 15.2,17.2 14.2,17.2 C 13.2,17.2 12.4,16.4 12.4,15.4 C 12.4,14.4 13.2,13.6 14.2,13.6 C 15.2,13.6 16,14.4 16,15.4 L 16,15.4 z"
   id="path16221" />




			</g>




		</g><path
     style="opacity:0.3;fill-rule:nonzero;stroke:none;stroke-width:1.2166667;stroke-miterlimit:4"
     d="M 25.015859,21.649044 L 33.697148,21.649044 L 35.362052,22.124732 L 32.507931,22.124732 C 32.507931,22.124732 35.362052,22.362574 36.789115,24.146401 C 38.216174,25.811305 35.12421,27.832976 35.12421,27.832976 C 35.12421,27.832976 35.12421,27.832976 35.12421,27.832976 C 35.005288,27.47621 34.291756,24.622087 32.864696,23.43287 C 31.794399,22.481496 30.605182,22.243652 30.605182,22.243652 L 25.015859,22.243652 L 25.015859,21.767966 L 25.015859,21.649044 z"
     id="path16223" /><path
     style="opacity:0.3;fill-rule:nonzero;stroke:none;stroke-width:1.2166667;stroke-miterlimit:4"
     d="M 30.724106,22.362574 L 25.729391,22.362574 L 35.005288,27.595131 L 30.724106,22.362574 L 30.724106,22.362574 z"
     id="path16225" /><path
     style="fill:#515151;fill-rule:nonzero;stroke:none;stroke-width:1.2166667;stroke-miterlimit:4"
     d="M 25.015859,21.767966 L 33.697148,21.767966 L 35.005288,20.935513 L 32.151167,20.935513 C 32.151167,20.935513 34.767443,20.459827 35.12421,17.486782 C 35.480973,14.513739 31.080869,11.183931 31.080869,11.183931 C 31.080869,11.183931 31.080869,11.183931 31.080869,11.302853 C 31.19979,12.016383 32.389007,17.011096 31.556557,18.913846 C 31.19979,20.578747 30.129495,20.935513 30.129495,20.935513 L 24.659094,20.935513 L 24.896938,21.767966 L 25.015859,21.767966 z"
     id="path16227" /><path
     style="fill:#515151;fill-rule:nonzero;stroke:none;stroke-width:1.2166667;stroke-miterlimit:4"
     d="M 30.248418,20.459827 L 25.253704,20.459827 L 31.19979,11.421773 L 30.248418,20.459827 z"
     id="path16229" /></g><path
   style="fill:none;fill-opacity:1;fill-rule:nonzero;stroke:#ffffff;stroke-width:0.99999976;stroke-linecap:butt;stroke-linejoin:miter;marker:none;marker-start:none;marker-mid:none;marker-end:none;stroke-miterlimit:4;stroke-dashoffset:0;stroke-opacity:1;visibility:visible;display:inline;overflow:visible"
   d="M 2.8042317,7.452858 L 43.233985,7.452858 C 43.384366,7.452858 43.505431,7.573923 43.505431,7.724305 L 43.505431,31.422651 C 43.505431,32.368527 36.401687,38.5 36.251306,38.5 L 2.8042317,38.5 C 2.6538507,38.5 2.5327858,38.378935 2.5327858,38.228554 L 2.5327858,7.724305 C 2.5327858,7.573923 2.6538507,7.452858 2.8042317,7.452858 z"
   id="rect7675"
   sodipodi:nodetypes="ccccccccc" /><rect
   style="opacity:0.84659095;fill:none;fill-opacity:1;fill-rule:nonzero;stroke:#4f4f4f;stroke-width:1;stroke-linecap:butt;stroke-linejoin:miter;marker:none;marker-start:none;marker-mid:none;marker-end:none;stroke-miterlimit:4;stroke-dasharray:none;stroke-dashoffset:0;stroke-opacity:1;visibility:visible;display:inline;overflow:visible"
   id="rect8163"
   width="35.0625"
   height="25.0625"
   x="5.5"
   y="10.5" /><path
   style="opacity:0.30113639;fill:url(#radialGradient8161);fill-opacity:1;fill-rule:nonzero;stroke:none;stroke-width:1;stroke-linecap:butt;stroke-linejoin:miter;marker:none;marker-start:none;marker-mid:none;marker-end:none;stroke-miterlimit:4;stroke-dasharray:none;stroke-dashoffset:0;stroke-opacity:1;visibility:visible;display:inline;overflow:visible"
   d="M 3.0625,8 L 3.0625,30.0625 C 25.388579,30.950861 27.884634,17 43,17 L 43,8 L 3.0625,8 z"
   id="rect8150"
   sodipodi:nodetypes="ccccc" /><g
   id="g2498"
   transform="matrix(0.997264,0,0,1,64.515479,3.3154129)"><path
     style="fill:#d3a8c8"
     d="M -58.64603,19.727048 L -58.64603,7.7125649 L -41.541666,7.7125649 L -24.437301,7.7125649 L -24.437301,19.727048 L -24.437301,31.741532 L -41.541666,31.741532 L -58.64603,31.741532 L -58.64603,19.727048 z"
     id="path2504" /><path
     style="fill:#aa6795"
     d="M -57.668638,31.616983 C -57.668638,31.54848 -57.555021,31.332916 -57.416155,31.137951 C -57.177842,30.803363 -57.141354,30.797852 -56.765959,31.039734 C -56.547217,31.180678 -56.398983,31.344907 -56.436552,31.404684 C -56.474121,31.464462 -56.345209,31.526268 -56.150081,31.542029 C -55.893301,31.562771 -55.69406,31.397456 -55.42878,30.943551 C -55.227193,30.598628 -55.062258,30.213373 -55.062258,30.087431 C -55.062258,29.961488 -54.95301,29.769282 -54.819485,29.660306 C -54.666258,29.535251 -54.612546,29.321762 -54.673865,29.081509 C -54.741447,28.81671 -54.691387,28.670798 -54.509391,28.60212 C -54.365497,28.547819 -54.245433,28.348909 -54.242584,28.160096 C -54.239735,27.971284 -54.131356,27.678993 -54.001743,27.510561 C -53.87213,27.342129 -53.803632,27.053782 -53.849525,26.869789 C -53.895418,26.685796 -53.792942,26.267161 -53.621801,25.93949 C -53.336184,25.392641 -53.334048,25.356047 -53.595798,25.493805 C -54.158736,25.790076 -54.668124,24.700152 -54.261711,24.068967 C -54.049453,23.739319 -53.596008,23.978955 -53.383268,24.533207 C -53.192013,25.031481 -53.035625,25.127701 -52.863126,24.853228 C -52.807753,24.765122 -52.638492,24.691931 -52.48699,24.690582 C -51.925035,24.685578 -51.725067,24.430756 -51.932228,23.983637 C -52.102079,23.617047 -52.087757,23.571683 -51.802172,23.571683 C -51.625664,23.571683 -51.389689,23.715857 -51.277784,23.892069 C -50.992737,24.340921 -50.501095,24.3105 -50.501095,23.844011 C -50.501095,23.400712 -50.784096,23.091104 -51.189301,23.091104 C -51.361484,23.091104 -51.556088,22.911245 -51.651822,22.663628 C -51.742721,22.428516 -51.935272,22.151172 -52.079714,22.047308 C -52.265529,21.913693 -52.287477,21.825122 -52.154759,21.744461 C -52.051592,21.681759 -51.967183,21.391234 -51.967183,21.098851 C -51.967183,20.806467 -51.853224,20.474237 -51.713941,20.360562 C -51.262694,19.99228 -51.159989,19.641426 -51.33637,19.070727 C -51.543847,18.399412 -51.297724,17.644538 -50.871369,17.644538 C -50.69428,17.644538 -50.429924,17.362663 -50.190126,16.918146 C -49.974604,16.518631 -49.550679,15.977979 -49.24807,15.716698 C -48.945461,15.455417 -48.795341,15.241641 -48.91447,15.241641 C -49.14072,15.241641 -50.186141,16.192767 -51.542198,17.632354 C -52.197137,18.327635 -52.393264,18.681612 -52.644076,19.621068 C -53.024128,21.044616 -53.396163,21.470022 -54.017562,21.191596 C -54.256924,21.084347 -54.469221,21.017319 -54.489333,21.042644 C -54.509445,21.067969 -54.79228,21.50319 -55.117854,22.0098 C -55.575086,22.721279 -55.800452,22.930911 -56.108099,22.930911 C -56.637663,22.930911 -56.805435,22.405282 -56.44739,21.867913 C -56.170354,21.452125 -56.206326,21.213362 -56.517509,21.402489 C -56.613064,21.460565 -56.691245,21.617648 -56.691245,21.751564 C -56.691245,21.88548 -57.074606,22.428486 -57.543157,22.958243 C -58.237162,23.742906 -58.386826,24.015218 -58.350603,24.427382 C -58.316532,24.815065 -58.345279,24.877159 -58.47359,24.693035 C -58.565688,24.560876 -58.642164,23.905643 -58.643536,23.236962 C -58.64588,22.094487 -58.621474,22.010176 -58.238783,21.838707 C -57.724294,21.608183 -57.725865,21.433974 -58.246064,21.031581 C -58.585206,20.769243 -58.653475,20.592333 -58.621463,20.058796 C -58.599942,19.700122 -58.514385,19.406662 -58.431337,19.406662 C -58.348289,19.406662 -58.371596,19.298532 -58.483131,19.166373 C -58.648309,18.970651 -58.639857,18.926083 -58.437564,18.926083 C -58.300966,18.926083 -58.112543,18.709822 -58.018845,18.445503 C -57.823725,17.895081 -58.058373,17.777739 -58.419268,18.245262 C -58.611843,18.494735 -58.636239,18.460932 -58.640849,17.938225 C -58.643699,17.615169 -58.570997,17.326255 -58.479291,17.296194 C -58.236641,17.216654 -58.098415,16.15767 -58.238422,15.450834 C -58.340241,14.936794 -58.379885,14.891415 -58.491157,15.161545 C -58.57744,15.371008 -58.627095,15.079835 -58.634581,14.320531 C -58.64099,13.670398 -58.57657,13.159131 -58.488244,13.159131 C -58.401461,13.159131 -58.373802,13.048053 -58.426779,12.91229 C -58.479756,12.776528 -58.459129,12.676934 -58.380942,12.690971 C -58.302755,12.705007 -58.092174,12.701454 -57.912986,12.683074 C -57.682374,12.65942 -57.741865,12.605737 -58.116609,12.499331 C -58.875205,12.283932 -58.840185,11.827249 -58.075885,11.968252 C -57.614806,12.053314 -57.505739,12.023766 -57.505739,11.813793 C -57.505739,11.610609 -57.629714,11.569273 -58.075885,11.623693 L -58.64603,11.693234 L -58.64603,9.6847952 L -58.64603,7.6763566 L -58.116609,8.4433169 C -57.313283,9.6070774 -56.525703,9.9231727 -57.086481,8.8567587 C -57.227479,8.5886276 -57.34284,8.2214941 -57.34284,8.0409063 C -57.34284,7.7571499 -57.240338,7.7125649 -56.587971,7.7125649 C -56.172793,7.7125649 -55.552031,7.7953769 -55.208501,7.8965916 C -54.74202,8.0340315 -54.527446,8.0345437 -54.360896,7.8986148 C -54.046895,7.6423452 -50.772236,7.6666303 -50.879821,7.9244308 C -50.923114,8.0281701 -51.010063,8.2391998 -51.073041,8.3933856 C -51.262283,8.8566994 -50.863464,8.7123655 -50.6304,8.2331925 C -50.421869,7.8044584 -50.37515,7.7914192 -48.885778,7.7462726 C -47.496299,7.704154 -47.375405,7.7235592 -47.572481,7.9570766 C -47.897065,8.3416807 -48.632977,8.6737236 -49.160797,8.6737236 C -49.759493,8.6737236 -51.078301,9.1134274 -51.312723,9.3911976 C -51.592383,9.722571 -47.509195,9.7241164 -47.028213,9.3928193 C -46.837759,9.2616353 -46.576879,9.1543029 -46.448482,9.1543029 C -46.320084,9.1543029 -45.988199,8.9883071 -45.710959,8.7854234 C -44.410534,7.8337741 -44.043048,7.7124395 -42.469022,7.7150179 C -41.441998,7.7167002 -41.048288,7.7662583 -41.215868,7.872758 C -41.426446,8.0065831 -41.422145,8.0283841 -41.184758,8.0304981 C -41.033255,8.0318473 -40.863315,7.9597846 -40.807113,7.8703588 C -40.656207,7.6302428 -35.322097,7.6908012 -35.458733,7.9310793 C -35.519295,8.0375824 -35.47123,8.0300043 -35.342832,7.9128063 C -35.03993,7.6363236 -34.537021,7.6613178 -34.537021,7.9528546 C -34.537021,8.2637389 -33.984897,8.2637389 -33.722527,7.9528546 C -33.488481,7.6755306 -31.441946,7.603654 -31.441946,7.872758 C -31.441946,7.9608642 -31.364315,8.0329511 -31.269433,8.0329511 C -31.174551,8.0329511 -31.142225,7.9608642 -31.197597,7.872758 C -31.263013,7.7686714 -30.439095,7.7125649 -28.84518,7.7125649 L -26.392086,7.7125649 L -26.392086,8.1300435 C -26.392086,8.3596567 -26.183062,8.8101998 -25.92759,9.1312504 C -25.672117,9.452301 -25.40768,9.9312395 -25.339952,10.195558 C -25.227956,10.632644 -25.199967,10.649511 -25.030679,10.381923 C -24.469234,9.4944608 -24.447854,9.509188 -24.442481,10.787084 C -24.437676,11.930108 -24.460656,12.01496 -24.759673,11.958331 C -24.936978,11.924752 -25.124564,11.964935 -25.176534,12.047626 C -25.228502,12.130316 -25.082856,12.197972 -24.852875,12.197972 L -24.43473,12.197972 L -24.439852,21.969752 L -24.444974,31.741532 L -25.020897,31.741532 C -25.438279,31.741532 -25.563144,31.686409 -25.474487,31.541291 C -25.376852,31.381477 -25.40267,31.38125 -25.602357,31.540163 C -25.952327,31.818673 -31.709938,31.813294 -31.825109,31.534349 C -31.886784,31.384972 -31.907842,31.385488 -31.917781,31.536616 C -31.927675,31.687079 -33.407913,31.731765 -38.335959,31.730371 L -44.741278,31.728561 L -44.670521,31.254466 C -44.598055,30.768931 -44.712931,30.680491 -45.101531,30.922647 C -45.273475,31.029794 -45.281174,31.134983 -45.136524,31.400774 C -44.965952,31.714197 -44.991509,31.741532 -45.455117,31.741532 C -45.749663,31.741532 -45.917314,31.674951 -45.858481,31.581339 C -45.803109,31.493233 -45.831109,31.421146 -45.920703,31.421146 C -46.010297,31.421146 -46.126312,31.489104 -46.178513,31.572165 C -46.233296,31.659334 -47.918539,31.728422 -50.164481,31.735571 C -53.170941,31.745143 -54.072759,31.701705 -54.131289,31.544504 C -54.191917,31.381668 -54.250132,31.381027 -54.422881,31.541291 C -54.661491,31.762657 -57.668638,31.832784 -57.668638,31.616983 z M -49.520435,31.176984 C -49.407103,31.042696 -49.355197,30.892681 -49.405088,30.843619 C -49.52975,30.721028 -50.175297,31.075537 -50.175297,31.266588 C -50.175297,31.506806 -49.749631,31.448561 -49.520435,31.176984 z M -47.731816,31.319586 C -47.731816,31.071478 -48.118769,29.979762 -48.205573,29.98297 C -48.258587,29.98493 -48.484372,30.124354 -48.707317,30.292801 L -49.112672,30.599071 L -48.688809,30.757547 C -48.455685,30.84471 -48.220597,31.029675 -48.166393,31.168585 C -48.071756,31.411108 -47.731816,31.529226 -47.731816,31.319586 z M -42.806492,30.090021 C -42.279458,29.673521 -41.99504,29.178442 -42.282799,29.178442 C -42.631776,29.178442 -43.333551,29.718176 -43.333551,29.986573 C -43.333551,30.24331 -43.40989,30.287057 -43.723027,30.209769 C -44.129204,30.109518 -44.406039,30.339269 -44.225399,30.626697 C -44.076356,30.863848 -43.518855,30.652983 -42.806492,30.090021 z M -27.058708,29.498828 C -26.571779,29.498828 -26.40236,29.416548 -26.227426,29.095108 C -25.866768,28.432407 -26.240246,28.295684 -26.87907,28.856553 C -27.181067,29.121698 -27.545252,29.338635 -27.688368,29.338635 C -28.06635,29.338635 -28.672667,29.79705 -28.672667,30.082828 C -28.672667,30.266615 -28.546761,30.224091 -28.171472,29.913551 C -27.827046,29.628548 -27.478988,29.498828 -27.058708,29.498828 z M -44.473842,28.858056 C -44.473842,28.681843 -44.455516,28.489612 -44.433118,28.430874 C -44.410719,28.372137 -44.484023,28.294043 -44.596016,28.257332 C -44.729564,28.213556 -44.79964,28.360567 -44.79964,28.684514 C -44.79964,28.956174 -44.726335,29.178442 -44.636741,29.178442 C -44.547147,29.178442 -44.473842,29.034268 -44.473842,28.858056 z M -41.402672,26.947151 C -41.755657,26.330008 -41.831163,26.281976 -42.356159,26.340594 C -42.81859,26.392226 -43.057101,26.29949 -43.618624,25.849733 C -43.9994,25.544746 -44.310944,25.171295 -44.310944,25.019837 C -44.310944,24.70049 -43.676562,24.374811 -43.040814,24.367777 C -42.655348,24.363513 -42.637012,24.34202 -42.893597,24.195212 C -43.106884,24.073179 -43.386355,24.094422 -43.920004,24.273234 C -45.143417,24.683169 -46.756616,24.25033 -48.448577,23.058167 C -49.250313,22.493261 -49.895015,22.452268 -49.820105,22.970959 C -49.785281,23.212082 -49.507213,23.469718 -48.980073,23.749267 C -48.546685,23.979096 -48.056185,24.37088 -47.890073,24.619897 C -47.671781,24.947138 -47.352677,25.13189 -46.739021,25.286329 C -46.272053,25.40385 -45.756198,25.458244 -45.592675,25.407206 C -45.411558,25.350677 -44.908592,25.537325 -44.305729,25.884785 C -43.761431,26.198491 -43.265045,26.45888 -43.20265,26.463427 C -42.929635,26.483326 -42.030362,27.808929 -42.030362,28.191478 L -42.030362,28.611605 L -41.524846,28.114486 L -41.019331,27.617367 L -41.402672,26.947151 z M -37.058364,26.789397 C -36.487065,26.271539 -36.207218,26.142876 -35.449731,26.049805 C -34.432649,25.92484 -34.297355,25.816594 -34.44334,25.244605 C -34.527493,24.914877 -34.6414,24.853228 -35.166471,24.853228 C -35.582836,24.853228 -35.887586,24.746879 -36.084559,24.532842 C -36.48225,24.100697 -37.00486,24.129551 -37.535253,24.612938 C -38.184639,25.204772 -38.53758,25.131128 -38.896055,24.328994 L -39.094542,23.884857 L -39.910857,24.291644 C -40.732878,24.701275 -40.95313,25.098402 -40.461245,25.284021 C -40.314986,25.339214 -40.059414,25.300907 -39.89331,25.198896 C -39.421192,24.908951 -39.399829,24.970267 -39.749464,25.611773 C -40.168861,26.381281 -40.160221,26.546677 -39.675734,27.023116 C -39.365037,27.328654 -39.105791,27.416318 -38.512937,27.416318 C -37.852046,27.416318 -37.657458,27.33245 -37.058364,26.789397 z M -32.256439,26.705877 C -32.256439,26.462712 -32.600923,25.814387 -32.730126,25.814387 C -32.931213,25.814387 -33.122857,26.403133 -32.990384,26.613919 C -32.892765,26.769245 -32.256439,26.848973 -32.256439,26.705877 z M -33.017665,24.438289 C -33.254083,23.832426 -34.050975,24.517569 -34.041543,25.318587 L -34.034764,25.894483 L -33.482152,25.279303 C -33.178216,24.940953 -32.969197,24.562497 -33.017665,24.438289 z M -29.641284,24.892221 C -29.412472,24.738615 -28.990972,24.367965 -28.704617,24.068552 C -28.268449,23.612494 -28.183971,23.399594 -28.183971,22.756413 C -28.183971,21.893219 -28.392553,21.655587 -28.817932,22.034156 C -28.976131,22.174946 -29.237612,22.290138 -29.398999,22.290138 C -29.652575,22.290138 -29.68062,22.39318 -29.605476,23.048781 C -29.494399,24.017896 -29.815413,24.693035 -30.387287,24.693035 C -30.809915,24.693035 -30.935624,24.929078 -30.586727,25.067522 C -30.230989,25.208681 -30.067543,25.178375 -29.641284,24.892221 z M -31.764475,24.76926 C -31.651143,24.634971 -31.587189,24.4992 -31.622356,24.467545 C -31.742614,24.359297 -32.419338,24.6824 -32.419338,24.848067 C -32.419338,25.097191 -31.998489,25.046546 -31.764475,24.76926 z M -31.686294,22.930911 C -31.741666,22.842804 -31.860274,22.770718 -31.949869,22.770718 C -32.039463,22.770718 -32.067464,22.842804 -32.012091,22.930911 C -31.956718,23.019017 -31.83811,23.091104 -31.748516,23.091104 C -31.658922,23.091104 -31.630921,23.019017 -31.686294,22.930911 z M -33.966876,22.343589 C -33.680563,22.117959 -33.677242,22.099162 -33.939474,22.18849 C -34.103592,22.244397 -34.305179,22.290138 -34.387446,22.290138 C -34.469711,22.290138 -34.537021,22.362225 -34.537021,22.450331 C -34.537021,22.677207 -34.344476,22.641159 -33.966876,22.343589 z M -36.166008,21.803923 C -36.166008,21.63081 -36.266989,21.489173 -36.390411,21.489173 C -36.71555,21.489173 -37.033023,21.924482 -36.919693,22.21491 C -36.783233,22.564613 -36.166008,22.228038 -36.166008,21.803923 z M -42.476551,21.870617 C -42.318782,21.815979 -42.145042,21.596315 -42.090466,21.382474 C -41.9707,20.913214 -42.141942,20.67691 -42.290956,21.10581 C -42.348907,21.272606 -42.588872,21.578045 -42.824212,21.784562 C -43.059551,21.991078 -43.142145,22.117277 -43.007754,22.065002 C -42.873362,22.012728 -42.634321,21.925255 -42.476551,21.870617 z M -32.09354,21.618936 C -32.09354,21.406265 -32.622207,21.526494 -32.700214,21.756906 C -32.740625,21.876266 -32.641805,21.913185 -32.428639,21.858367 C -32.244336,21.81097 -32.09354,21.703227 -32.09354,21.618936 z M -30.464553,21.489173 C -30.464553,21.401066 -30.578836,21.32898 -30.718516,21.32898 C -30.858195,21.32898 -30.927173,21.401066 -30.8718,21.489173 C -30.816427,21.577279 -30.702144,21.649366 -30.617838,21.649366 C -30.533531,21.649366 -30.464553,21.577279 -30.464553,21.489173 z M -57.12052,20.608111 C -57.067698,20.431898 -57.09346,20.179594 -57.177769,20.047435 C -57.313161,19.8352 -57.36127,19.836847 -57.589824,20.061541 C -57.80609,20.274154 -57.815809,20.38669 -57.649004,20.746707 C -57.441358,21.194871 -57.284041,21.153614 -57.12052,20.608111 z M -37.1434,21.033421 C -37.1434,20.95897 -37.283912,20.773008 -37.455646,20.62017 C -37.704748,20.398481 -37.83652,20.378402 -38.107241,20.520882 C -38.455939,20.7044 -38.528526,20.874619 -38.33799,21.061991 C -38.179666,21.217687 -37.1434,21.192904 -37.1434,21.033421 z M -54.154556,20.247676 C -53.993088,20.005384 -53.743469,19.48421 -53.599848,19.089511 C -53.344016,18.38644 -53.173289,18.223561 -51.413601,17.003765 C -50.726974,16.527804 -50.640817,16.262585 -51.274863,16.576687 C -51.521248,16.698744 -51.91444,16.843679 -52.148625,16.898765 C -53.240602,17.155622 -55.238286,19.85913 -54.823632,20.518909 C -54.651984,20.792029 -54.467477,20.717233 -54.154556,20.247676 z M -31.359441,19.725367 C -31.303486,19.636337 -31.230283,19.144789 -31.196765,18.63304 C -31.163247,18.12129 -31.113071,17.601128 -31.085261,17.477124 C -31.020548,17.188561 -31.64536,17.088277 -32.080642,17.317364 C -32.36434,17.466672 -32.405293,17.630142 -32.374119,18.488822 C -32.350223,19.147019 -32.254703,19.553195 -32.09354,19.681906 C -31.792548,19.922291 -31.494298,19.939949 -31.359441,19.725367 z M -38.032645,16.85423 C -38.091702,16.760262 -38.217975,16.683379 -38.313251,16.683379 C -38.421269,16.683379 -38.40891,16.775295 -38.280424,16.92754 C -38.057001,17.192276 -37.857322,17.133197 -38.032645,16.85423 z M -32.256439,16.834118 C -32.256439,16.740812 -32.329743,16.709023 -32.419338,16.763476 C -32.508932,16.817928 -32.582236,16.89427 -32.582236,16.933123 C -32.582236,16.971976 -32.508932,17.003765 -32.419338,17.003765 C -32.329743,17.003765 -32.256439,16.927424 -32.256439,16.834118 z M -52.094559,15.990813 C -51.979705,15.786113 -51.33595,15.127766 -50.663993,14.527819 C -49.242562,13.258715 -49.05942,12.979932 -49.991508,13.50414 C -50.911891,14.021766 -52.781676,15.753657 -52.781676,16.088537 C -52.781676,16.487703 -52.337949,16.424595 -52.094559,15.990813 z M -43.007754,15.821932 C -43.007754,15.700561 -43.117711,15.511517 -43.252102,15.401834 C -43.458736,15.233192 -43.49645,15.267252 -43.49645,15.622509 C -43.49645,15.889134 -43.407183,16.042607 -43.252102,16.042607 C -43.117711,16.042607 -43.007754,15.943303 -43.007754,15.821932 z M -39.098185,15.338877 C -39.098185,15.30425 -39.211948,15.232989 -39.350994,15.180518 C -39.495961,15.125813 -39.561348,15.152669 -39.504278,15.243476 C -39.408614,15.395692 -39.098185,15.468619 -39.098185,15.338877 z M -40.157026,15.081448 C -40.212399,14.993342 -40.29003,14.921255 -40.329539,14.921255 C -40.369049,14.921255 -40.401375,14.993342 -40.401375,15.081448 C -40.401375,15.169554 -40.323744,15.241641 -40.228862,15.241641 C -40.13398,15.241641 -40.101654,15.169554 -40.157026,15.081448 z M -46.804897,14.643523 C -46.608671,14.601536 -46.322418,14.430589 -46.168779,14.26364 C -46.005813,14.086555 -45.672945,13.960096 -45.369785,13.960096 C -45.050384,13.960096 -44.731993,13.83172 -44.543558,13.626959 C -44.321104,13.385233 -44.113913,13.318027 -43.788474,13.382034 C -43.451351,13.448339 -43.297549,13.392301 -43.169159,13.156386 C -42.869151,12.605127 -42.310818,12.602211 -41.715817,13.148794 C -41.076893,13.735726 -40.682244,13.79161 -40.756567,13.284629 C -40.786145,13.082872 -41.019642,12.823479 -41.297317,12.683905 C -41.5661,12.548801 -41.814206,12.422551 -41.848664,12.40335 C -41.961037,12.340732 -41.513194,11.413745 -41.197801,11.056134 C -41.028549,10.864227 -40.890071,10.571532 -40.890071,10.405701 C -40.890071,10.145404 -40.84146,10.129772 -40.534463,10.291344 C -40.232061,10.450496 -40.135037,10.425282 -39.885979,10.122817 C -39.607673,9.7848333 -39.607131,9.7481556 -39.875063,9.385657 C -40.237332,8.8955287 -40.462579,8.8977198 -40.793641,9.3945926 C -40.940403,9.6148581 -41.16576,9.7950754 -41.294437,9.7950754 C -41.574266,9.7950754 -42.162072,10.283424 -43.752862,11.837538 C -44.406707,12.476308 -45.015212,12.998938 -45.105096,12.998938 C -45.19498,12.998938 -45.608522,13.288319 -46.024078,13.642007 C -46.439635,13.995695 -46.993877,14.394024 -47.255726,14.527183 C -47.767492,14.787432 -47.918328,15.032628 -47.446744,14.837697 C -47.289954,14.772888 -47.001122,14.685509 -46.804897,14.643523 z M -57.179942,14.431222 C -57.179942,14.348315 -57.253246,14.280483 -57.34284,14.280483 C -57.432435,14.280483 -57.505739,14.392867 -57.505739,14.530226 C -57.505739,14.667585 -57.432435,14.735418 -57.34284,14.680965 C -57.253246,14.626513 -57.179942,14.514128 -57.179942,14.431222 z M -52.766086,14.005654 C -52.28148,13.724145 -52.147834,13.479517 -52.478645,13.479517 C -52.580761,13.479517 -52.745696,13.378666 -52.845167,13.255403 C -53.134692,12.89663 -53.759069,12.76876 -53.759069,13.068239 C -53.759069,13.206336 -53.649112,13.319324 -53.514721,13.319324 C -53.380329,13.319324 -53.270373,13.382584 -53.270373,13.459902 C -53.270373,13.53722 -53.380329,13.690221 -53.514721,13.799903 C -54.120063,14.293948 -53.537834,14.453965 -52.766086,14.005654 z M -47.556589,13.698066 C -47.193308,13.309666 -47.189498,13.29006 -47.509028,13.453326 C -47.700075,13.550942 -47.899361,13.740943 -47.951887,13.87555 C -48.085168,14.217105 -48.010852,14.183738 -47.556589,13.698066 z M -54.402657,11.949301 C -54.123213,11.656787 -53.90653,11.566483 -53.641217,11.631967 C -53.179041,11.746039 -52.426954,11.572629 -52.548068,11.379918 C -52.597533,11.301211 -52.858412,11.236813 -53.127797,11.236813 C -53.397182,11.236813 -53.766029,11.15869 -53.947456,11.063206 C -54.368194,10.841774 -55.156386,11.140926 -55.658132,11.712481 C -55.978036,12.076894 -55.98649,12.128883 -55.741759,12.226761 C -55.209054,12.439812 -54.787884,12.352546 -54.402657,11.949301 z M -45.212555,11.860991 C -44.397887,11.157584 -44.497517,10.986718 -45.369785,11.591338 C -46.071784,12.077934 -46.282211,12.358165 -45.945599,12.358165 C -45.859122,12.358165 -45.529252,12.134437 -45.212555,11.860991 z M -33.193107,11.548777 C -32.599825,11.38675 -32.356148,10.968751 -32.78586,10.850191 C -32.897853,10.819292 -33.282701,10.708091 -33.641078,10.603078 C -34.51068,10.348263 -35.188616,10.58418 -35.188616,11.14161 C -35.188616,11.422118 -35.083499,11.554827 -34.822094,11.604339 C -34.160147,11.729718 -33.812193,11.71785 -33.193107,11.548777 z M -31.284227,10.306249 C -31.287078,10.157263 -31.3885,9.9069121 -31.50961,9.7499142 C -31.714491,9.4843264 -31.737289,9.4937529 -31.837242,9.885382 C -31.898717,10.12625 -31.864094,10.401777 -31.756299,10.529504 C -31.529074,10.798747 -31.277087,10.679576 -31.284227,10.306249 z M -30.220205,8.6737236 C -30.275578,8.5856174 -30.389861,8.5135305 -30.474168,8.5135305 C -30.558474,8.5135305 -30.627452,8.5856174 -30.627452,8.6737236 C -30.627452,8.7618298 -30.513169,8.8339167 -30.37349,8.8339167 C -30.23381,8.8339167 -30.164833,8.7618298 -30.220205,8.6737236 z M -58.63317,30.873819 C -58.640243,30.704949 -58.601742,30.610335 -58.547612,30.663565 C -58.493482,30.716797 -58.487695,30.854962 -58.534752,30.970603 C -58.586753,31.098393 -58.625353,31.060436 -58.63317,30.873819 z M -58.64603,28.323974 C -58.64603,27.447618 -58.585295,27.107291 -58.417608,27.044011 C -58.291976,26.996602 -58.145367,27.000905 -58.09181,27.053572 C -57.91777,27.22472 -57.989014,27.879286 -58.203086,28.075937 C -58.319574,28.182946 -58.384647,28.495792 -58.350409,28.784202 C -58.316678,29.068327 -58.369394,29.349605 -58.467555,29.409266 C -58.590824,29.484183 -58.64603,29.148478 -58.64603,28.323974 z M -56.270874,27.971385 C -56.406685,27.439261 -56.250838,26.935738 -55.950327,26.935738 C -55.698783,26.935738 -55.488537,27.539961 -55.579124,28.002532 C -55.671373,28.473589 -56.14818,28.45212 -56.270874,27.971385 z M -58.64603,26.695449 C -58.64603,26.56329 -58.572726,26.455159 -58.483131,26.455159 C -58.393537,26.455159 -58.320233,26.56329 -58.320233,26.695449 C -58.320233,26.827608 -58.393537,26.935738 -58.483131,26.935738 C -58.572726,26.935738 -58.64603,26.827608 -58.64603,26.695449 z M -57.745016,25.71001 C -57.58568,24.794543 -57.137765,23.41149 -57.000617,23.41149 C -56.934712,23.41149 -56.77046,23.369855 -56.635612,23.318969 C -56.487693,23.26315 -56.319375,23.357019 -56.211302,23.5556 C -55.963387,24.011139 -56.342685,24.861598 -56.998613,25.320902 C -57.277532,25.516211 -57.505739,25.774978 -57.505739,25.895938 C -57.505739,26.016898 -57.583719,26.163258 -57.679027,26.221184 C -57.796596,26.292638 -57.817814,26.128276 -57.745016,25.71001 z M -58.45741,16.362993 C -58.45741,16.142727 -58.420437,16.052619 -58.375247,16.162752 C -58.330057,16.272884 -58.330057,16.453102 -58.375247,16.563234 C -58.420437,16.673367 -58.45741,16.583259 -58.45741,16.362993 z M -25.117178,8.3403796 C -26.01467,7.8928137 -26.032695,7.7125649 -25.179959,7.7125649 C -24.463383,7.7125649 -24.437301,7.7294425 -24.437301,8.1931442 C -24.437301,8.4574629 -24.455627,8.6658673 -24.478026,8.6562651 C -24.500424,8.646663 -24.788043,8.5045145 -25.117178,8.3403796 z"
     id="path2502" /><path
     style="fill:#4b2555"
     d="M -57.668638,31.581339 C -57.668638,31.317288 -56.736665,31.327569 -56.455042,31.594726 C -56.360382,31.684526 -56.565964,31.741532 -56.984463,31.741532 C -57.360759,31.741532 -57.668638,31.669445 -57.668638,31.581339 z M -52.781676,31.657728 C -52.781676,31.611638 -52.42129,31.038762 -51.980817,30.384672 C -51.131844,29.123968 -51.133,28.989637 -51.99465,28.776969 L -52.427542,28.670124 L -52.339651,29.623308 C -52.252124,30.572539 -52.253975,30.57758 -52.786093,30.838626 C -53.474398,31.176295 -53.64139,31.168858 -54.107544,30.779769 L -54.492113,30.458779 L -54.064719,30.098949 C -53.813862,29.887747 -53.592477,29.492786 -53.528747,29.142749 C -53.46903,28.814746 -53.310974,28.486284 -53.177511,28.412836 C -52.964121,28.2954 -52.963348,28.212226 -53.171104,27.723254 C -53.468501,27.023306 -53.238929,26.037228 -52.604623,25.290051 C -52.142577,24.745787 -52.233906,24.745328 -51.125645,25.297484 C -51.065974,25.327214 -50.992669,25.23254 -50.962747,25.0871 C -50.914421,24.852214 -50.861395,24.859064 -50.488238,25.148401 C -50.257182,25.327557 -49.87534,25.521725 -49.639702,25.579883 C -49.404063,25.638043 -49.124447,25.788504 -49.018331,25.914241 C -48.851922,26.111422 -48.786587,26.108319 -48.543157,25.891677 C -48.201438,25.587563 -47.251333,25.417036 -46.681818,25.5576 C -46.324512,25.645788 -46.265728,25.748656 -46.265728,26.285728 C -46.265728,26.705813 -46.140507,27.059829 -45.884335,27.363978 C -45.207514,28.167558 -45.2227,28.967855 -45.929403,29.739118 C -46.090865,29.91533 -46.267486,30.245384 -46.321893,30.472572 C -46.3763,30.699759 -46.598797,30.965387 -46.816329,31.062855 C -47.357006,31.305111 -47.801727,30.840838 -47.697558,30.14288 C -47.573829,29.313861 -47.955187,29.210356 -48.698906,29.871101 C -49.052246,30.185019 -49.568783,30.557524 -49.846767,30.698886 C -50.124751,30.84025 -50.420533,31.132676 -50.504061,31.348722 C -50.643846,31.710278 -50.740496,31.741532 -51.718803,31.741532 C -52.303383,31.741532 -52.781676,31.703821 -52.781676,31.657728 z M -50.219122,31.636455 C -50.108834,31.592575 -49.888921,31.589904 -49.730426,31.63052 C -49.571931,31.671135 -49.662166,31.707038 -49.930949,31.710302 C -50.199732,31.713567 -50.32941,31.680337 -50.219122,31.636455 z M -49.197905,31.421146 C -49.000495,31.058409 -48.703958,31.009807 -48.415991,31.292991 C -48.087592,31.615936 -48.194108,31.741532 -48.79639,31.741532 C -49.321788,31.741532 -49.356983,31.713448 -49.197905,31.421146 z M -45.695583,31.581339 C -45.64021,31.493233 -45.489275,31.421146 -45.360171,31.421146 C -45.231067,31.421146 -45.125437,31.493233 -45.125437,31.581339 C -45.125437,31.669445 -45.276372,31.741532 -45.460848,31.741532 C -45.645324,31.741532 -45.750955,31.669445 -45.695583,31.581339 z M -44.148045,31.501242 C -44.03651,31.369083 -43.844273,31.260953 -43.720852,31.260953 C -43.597431,31.260953 -43.49645,31.369083 -43.49645,31.501242 C -43.49645,31.653748 -43.652515,31.741532 -43.923643,31.741532 C -44.2849,31.741532 -44.319536,31.704444 -44.148045,31.501242 z M -41.541666,31.581339 C -41.254654,31.398938 -40.328945,31.398938 -39.74978,31.581339 C -39.463837,31.671393 -39.706444,31.713621 -40.564273,31.723111 C -41.408268,31.732447 -41.710464,31.688614 -41.541666,31.581339 z M -38.848616,31.589646 C -38.908665,31.494096 -39.007711,31.446113 -39.068716,31.483019 C -39.12972,31.519922 -39.197594,31.30887 -39.219544,31.014012 C -39.241495,30.719154 -39.186517,30.433576 -39.09737,30.379395 C -38.851851,30.230177 -38.903426,29.979408 -39.179634,29.979408 C -39.314026,29.979408 -39.423982,30.073121 -39.423982,30.187659 C -39.423982,30.666848 -39.772221,30.75088 -40.315227,30.402723 C -40.788461,30.099301 -40.860205,29.957343 -40.93396,29.178442 C -41.006375,28.413709 -40.971347,28.261482 -40.668659,28.025495 C -40.355857,27.781624 -40.281582,27.77825 -39.947808,27.992746 C -39.609335,28.210259 -39.537387,28.202252 -39.15207,27.904196 C -38.348444,27.282563 -37.990975,27.567675 -37.912297,28.893026 C -37.868863,29.624639 -37.766644,29.888769 -37.343546,30.362647 C -37.043446,30.698766 -36.866974,31.040884 -36.921552,31.18075 C -37.02015,31.433426 -37.040491,31.441103 -37.754271,31.495054 C -38.000655,31.513676 -38.32311,31.581667 -38.470837,31.646143 C -38.619007,31.710813 -38.788386,31.685484 -38.848616,31.589646 z M -39.461019,28.925798 C -39.418654,28.479156 -39.428038,28.471906 -39.664642,28.768529 C -39.964428,29.144363 -39.990534,29.550667 -39.709055,29.459775 C -39.597062,29.423613 -39.485446,29.183323 -39.461019,28.925798 z M -33.39673,31.576312 C -33.39673,31.485439 -33.286773,31.369597 -33.152382,31.318883 C -32.993085,31.258769 -32.908034,31.009605 -32.908034,30.603041 C -32.908034,30.082992 -32.962998,29.979408 -33.238943,29.979408 C -33.984542,29.979408 -33.776442,29.20023 -32.762593,28.195834 C -32.439412,27.875665 -32.043284,27.425122 -31.882313,27.194627 C -31.72134,26.964133 -31.460459,26.775545 -31.302576,26.775545 C -31.144694,26.775545 -30.873225,26.669707 -30.699311,26.54035 C -30.406426,26.322502 -30.438701,26.304779 -31.136927,26.30006 C -32.028436,26.294035 -32.373949,26.009247 -32.100143,25.506132 C -31.834587,25.018179 -31.214379,24.927513 -30.591033,25.28552 L -30.059533,25.590776 L -29.406826,25.14642 C -29.047836,24.902023 -28.570856,24.44924 -28.34687,24.140234 C -28.122884,23.831228 -27.807824,23.534893 -27.646733,23.481712 C -27.288429,23.363425 -26.880782,23.669535 -26.880782,24.056881 C -26.880782,24.272587 -26.790917,24.32102 -26.51426,24.254418 C -25.934536,24.114855 -25.707329,23.884093 -25.911476,23.642198 C -26.03654,23.494009 -26.032985,23.259253 -25.899019,22.819542 C -25.555798,21.692997 -25.943994,20.665811 -26.397816,21.499702 C -26.540978,21.76276 -26.542472,21.949434 -26.403808,22.248713 C -26.00689,23.105383 -26.614903,23.534962 -27.456658,22.992583 C -27.967948,22.663138 -27.960966,22.504127 -27.387489,21.417162 C -27.11315,20.897182 -26.983165,20.484697 -27.075885,20.428344 C -27.16338,20.375168 -27.306263,20.401772 -27.393403,20.487464 C -27.568571,20.659723 -28.800662,20.483196 -29.315925,20.212015 C -29.713584,20.00273 -30.464553,20.261695 -30.464553,20.608111 C -30.464553,20.912279 -31.134733,21.18567 -32.03031,21.246841 C -32.398708,21.272003 -32.890719,21.4154 -33.123669,21.5655 C -33.356621,21.7156 -33.839533,21.876965 -34.196807,21.92409 C -34.798726,22.003483 -34.854595,21.97765 -34.958104,21.572085 C -35.088855,21.059791 -34.939047,20.928409 -33.900253,20.644343 C -33.44477,20.519788 -33.153019,20.338817 -33.102711,20.149635 C -33.038265,19.907289 -32.913248,19.866761 -32.436289,19.933597 C -32.113385,19.978845 -31.724581,20.065339 -31.572279,20.125807 C -31.167376,20.286562 -30.730669,19.230162 -30.979771,18.692523 C -31.123436,18.382451 -31.086536,18.162581 -30.785772,17.536549 C -30.581498,17.111359 -30.32463,16.655345 -30.214953,16.523186 C -30.105277,16.391027 -29.97265,16.066636 -29.920227,15.802317 C -29.867805,15.537998 -29.778621,15.096631 -29.722041,14.821501 C -29.641258,14.428684 -29.697028,14.249932 -29.981751,13.989079 C -30.244453,13.7484 -30.362585,13.422856 -30.410596,12.807288 C -30.447043,12.340005 -30.518157,11.532534 -30.568629,11.012907 C -30.645553,10.220933 -30.600209,9.9618487 -30.288264,9.4109762 C -30.083592,9.0495404 -29.782962,8.6596239 -29.620197,8.5444952 C -28.994687,8.1020503 -29.327339,7.9256008 -30.152633,8.2620741 C -30.30493,8.3241659 -30.572226,8.2327798 -30.804228,8.0392988 L -31.197597,7.7112446 L -29.894408,7.751953 L -28.591218,7.7926615 L -28.632334,8.5694378 C -28.656917,9.033874 -28.804294,9.5269174 -28.998856,9.7956152 C -29.336235,10.261552 -29.430192,10.756234 -29.181309,10.756234 C -28.911386,10.756234 -28.701362,10.354103 -28.428319,9.314496 C -28.277908,8.7418057 -28.088729,8.1945212 -28.007922,8.0983084 C -27.927116,8.0020956 -27.909235,7.8759435 -27.968186,7.8179705 C -28.027139,7.7599974 -27.696632,7.7125649 -27.233729,7.7125649 C -26.33603,7.7125649 -26.305125,7.7340336 -26.551399,8.1865552 C -26.669207,8.4030257 -26.632768,8.5776513 -26.411532,8.8568446 C -25.689712,9.7677616 -25.53467,10.287447 -25.633052,11.466219 C -25.685027,12.088948 -25.775661,12.796694 -25.83446,13.038986 C -25.996986,13.708692 -25.475728,13.612876 -25.180844,12.918841 C -24.793339,12.006816 -24.437301,12.183242 -24.437301,13.287285 C -24.437301,13.798301 -24.525266,14.30291 -24.632779,14.408637 C -24.784818,14.558151 -24.784818,14.600869 -24.632779,14.600869 C -24.500763,14.600869 -24.437301,14.939356 -24.437301,15.643481 C -24.437301,16.663689 -24.44476,16.681762 -24.784381,16.484495 C -25.061659,16.323441 -25.146293,16.323168 -25.205204,16.483138 C -25.245761,16.593271 -25.382793,16.683379 -25.509717,16.683379 C -25.944047,16.683379 -25.740738,17.354808 -25.084367,18.0881 L -24.428244,18.821116 L -24.444232,22.077289 C -24.457458,24.770666 -24.50327,25.375796 -24.709286,25.57839 C -24.890093,25.756193 -24.910727,25.879749 -24.78458,26.029223 C -24.68837,26.143222 -24.650817,26.516612 -24.700444,26.865771 C -24.767689,27.338876 -24.746641,27.436388 -24.616185,27.256125 C -24.48144,27.069934 -24.443652,27.160099 -24.448339,27.656608 C -24.454278,28.285572 -24.459102,28.290738 -24.710062,27.936945 C -25.159648,27.303143 -26.577915,27.59196 -26.855052,28.373752 C -26.985211,28.740924 -27.183045,28.875163 -27.893202,29.078182 C -28.62596,29.287663 -28.822891,29.42661 -29.088131,29.92128 C -29.262801,30.247034 -29.526556,30.73579 -29.674253,31.007402 C -29.821952,31.279014 -29.909256,31.555307 -29.868264,31.621387 C -29.827271,31.687467 -30.193389,31.741532 -30.681859,31.741532 C -31.321034,31.741532 -31.596271,31.674176 -31.663753,31.501242 C -31.715324,31.369083 -31.867474,31.260953 -32.001866,31.260953 C -32.152138,31.260953 -32.210114,31.353466 -32.152449,31.501242 C -32.078482,31.690796 -32.199946,31.741532 -32.727707,31.741532 C -33.09567,31.741532 -33.39673,31.667183 -33.39673,31.576312 z M -28.762293,26.830642 C -28.624159,26.289422 -28.965556,25.911134 -29.431407,26.089224 C -29.733956,26.204885 -29.742721,26.256246 -29.541703,26.735497 C -29.277343,27.365759 -28.910302,27.410565 -28.762293,26.830642 z M -25.121476,14.889216 C -24.845954,14.61827 -24.878752,14.332589 -25.199266,14.211639 C -25.552326,14.078407 -25.945979,14.465522 -25.810498,14.812718 C -25.687505,15.127909 -25.396998,15.160163 -25.121476,14.889216 z M -28.34687,14.280483 C -28.34687,14.192376 -28.420174,14.120289 -28.509769,14.120289 C -28.599363,14.120289 -28.672667,14.192376 -28.672667,14.280483 C -28.672667,14.368589 -28.599363,14.440676 -28.509769,14.440676 C -28.420174,14.440676 -28.34687,14.368589 -28.34687,14.280483 z M -28.998465,31.570651 C -28.998465,31.370959 -28.231891,30.310589 -27.877059,30.019456 C -27.74283,29.909323 -27.391016,29.819215 -27.095251,29.819215 C -26.698092,29.819215 -26.440048,29.688761 -26.108269,29.320248 C -25.268583,28.38759 -24.427314,28.42007 -24.448751,29.384319 C -24.461654,29.96475 -24.621093,30.445073 -24.803823,30.454012 C -24.871019,30.457297 -25.002237,30.459987 -25.095422,30.459987 C -25.188605,30.459987 -25.566696,30.766356 -25.935627,31.140808 C -26.304557,31.515259 -26.560485,31.695476 -26.504359,31.541291 C -26.376239,31.18933 -26.847721,31.150027 -26.984771,31.501242 C -27.08759,31.764729 -27.695275,31.836627 -27.695275,31.585304 C -27.695275,31.483796 -27.841628,31.483796 -28.113127,31.585304 C -28.658515,31.789217 -28.998465,31.783589 -28.998465,31.570651 z M -25.308967,31.496792 C -25.221976,31.273863 -24.754887,30.940566 -24.529459,30.940566 C -24.478772,30.940566 -24.437301,31.120784 -24.437301,31.341049 C -24.437301,31.678294 -24.513661,31.741532 -24.920885,31.741532 C -25.287719,31.741532 -25.381411,31.682446 -25.308967,31.496792 z M -36.169668,31.140808 C -36.48448,30.862044 -36.679833,30.523802 -36.70166,30.219697 C -36.735082,29.754053 -36.714693,29.739544 -36.04554,29.752821 C -34.977295,29.774014 -34.451595,30.438182 -34.798798,31.327947 C -34.951559,31.719427 -35.619146,31.628293 -36.169668,31.140808 z M -43.819129,28.665744 C -43.999363,28.375037 -44.147101,28.083122 -44.147436,28.017042 C -44.147771,27.950962 -44.239675,27.89662 -44.351668,27.89628 C -44.641558,27.895401 -45.777032,26.470544 -45.777032,26.107652 C -45.777032,25.265913 -44.247387,25.860937 -43.16255,27.124672 C -42.459359,27.943823 -42.366545,28.359213 -42.80413,28.728766 C -43.37306,29.209241 -43.486537,29.202196 -43.819129,28.665744 z M -36.407346,28.117262 C -36.578502,27.948949 -36.654527,27.651923 -36.622605,27.276248 C -36.575193,26.71827 -36.550853,26.697256 -36.003109,26.741458 C -35.689529,26.766764 -35.112244,26.783448 -34.720254,26.778533 C -34.328263,26.77362 -33.906763,26.85185 -33.783587,26.952379 C -33.446227,27.227714 -33.503285,28.016164 -33.874717,28.211648 C -34.389528,28.482589 -36.100697,28.418818 -36.407346,28.117262 z M -56.039651,27.666062 C -56.039651,27.440597 -55.966346,27.256125 -55.876752,27.256125 C -55.787158,27.256125 -55.713853,27.396044 -55.713853,27.567056 C -55.713853,27.738069 -55.787158,27.922541 -55.876752,27.976994 C -55.969141,28.033145 -56.039651,27.89856 -56.039651,27.666062 z M -41.058189,26.89569 C -41.430756,26.301108 -41.419322,25.842196 -41.025899,25.599747 C -40.564187,25.315212 -40.238476,25.743423 -40.238476,26.634966 C -40.238476,27.582323 -40.563219,27.685614 -41.058189,26.89569 z M -43.618624,25.579468 C -44.73863,25.092483 -43.955536,24.520782 -42.537758,24.790378 C -41.883259,24.914833 -41.786014,24.985131 -41.786014,25.333807 C -41.786014,25.687961 -41.861393,25.738651 -42.437608,25.771977 C -42.795986,25.792705 -43.327443,25.706077 -43.618624,25.579468 z M -54.021996,24.943478 C -54.15034,24.614574 -53.969577,24.164612 -53.760219,24.291852 C -53.669992,24.346689 -53.59617,24.527222 -53.59617,24.693035 C -53.59617,25.087693 -53.89674,25.264468 -54.021996,24.943478 z M -35.988447,24.360937 C -36.204369,24.184145 -36.473424,23.988304 -36.586347,23.925734 C -36.69927,23.863166 -36.838633,23.627313 -36.89604,23.401617 C -36.981756,23.064632 -36.924451,22.957224 -36.575548,22.800893 C -36.017772,22.550974 -34.947689,22.557229 -34.732962,22.811662 C -34.6396,22.922288 -34.513647,23.207008 -34.453066,23.444373 C -34.367018,23.781518 -34.433817,23.965335 -34.758363,24.284491 C -35.25495,24.77283 -35.469132,24.786141 -35.988447,24.360937 z M -42.030362,24.397261 C -42.030362,24.189958 -41.52289,23.204286 -41.263136,22.907065 C -41.060666,22.675392 -41.07558,22.613118 -41.384481,22.400349 C -41.657328,22.212413 -41.714439,22.055396 -41.638005,21.703325 C -41.578715,21.430225 -41.637315,21.065785 -41.784854,20.790041 C -41.919884,20.537677 -42.030362,20.127432 -42.030362,19.878384 C -42.030362,19.367745 -42.295168,19.122414 -42.56254,19.385345 C -42.691265,19.511932 -42.682267,19.667445 -42.530032,19.947173 C -42.099882,20.737566 -42.931812,21.969752 -43.895607,21.969752 C -44.034448,21.969752 -44.148045,22.027422 -44.148045,22.097906 C -44.148045,22.321425 -43.767615,22.610524 -43.473484,22.610524 C -43.069978,22.610524 -42.974787,22.844682 -43.189714,23.308562 C -43.450013,23.870366 -44.151419,24.115468 -45.162007,23.997768 C -45.882743,23.913825 -46.113155,23.792336 -46.784024,23.14253 C -47.514906,22.434595 -47.580207,22.404279 -47.783964,22.678304 C -47.964792,22.921494 -48.062244,22.939746 -48.355583,22.785364 C -48.919319,22.488672 -49.230438,21.876369 -49.278146,20.969703 C -49.337002,19.851159 -49.326102,19.887242 -49.605152,19.887242 C -49.87745,19.887242 -49.941402,20.45325 -49.686601,20.608111 C -49.47204,20.738514 -49.476868,21.4418 -49.693227,21.573296 C -49.786466,21.629964 -49.818196,21.81438 -49.763739,21.983109 C -49.630789,22.395041 -50.334724,22.6782 -50.882064,22.432957 C -51.298113,22.246541 -51.804284,21.512442 -51.804284,21.095463 C -51.804284,20.601141 -50.944618,19.727058 -50.458445,19.727053 C -50.025695,19.727049 -50.012473,19.702915 -50.111513,19.093839 C -50.259712,18.182444 -50.100582,17.752873 -49.27693,16.840889 C -48.875089,16.395952 -48.54631,15.958707 -48.54631,15.869234 C -48.54631,15.641898 -47.254851,15.089216 -46.7137,15.084966 C -46.467315,15.083031 -46.265728,15.022954 -46.265728,14.951461 C -46.265728,14.614104 -45.58206,14.122102 -45.232997,14.208256 C -44.985815,14.269264 -44.768316,14.191576 -44.563642,13.96917 C -44.381697,13.771463 -44.058212,13.63971 -43.754736,13.63971 C -43.425442,13.63971 -43.178043,13.527942 -43.045558,13.319324 C -42.785619,12.910008 -42.325594,12.910008 -41.948912,13.319324 C -41.786748,13.495536 -41.568371,13.63971 -41.463631,13.63971 C -41.358888,13.63971 -41.094738,14.090253 -40.87663,14.640917 C -40.519992,15.541327 -40.437341,15.637826 -40.055653,15.599431 C -39.577677,15.551351 -39.355185,15.760066 -39.198993,16.403041 C -39.140135,16.645333 -38.988409,16.843572 -38.861825,16.843572 C -38.735242,16.843572 -38.474469,17.060681 -38.282328,17.326035 C -38.090187,17.59139 -37.858293,17.763105 -37.767006,17.707624 C -37.51248,17.55293 -36.831383,17.974033 -36.929485,18.225439 C -37.083566,18.620296 -36.717994,18.457327 -36.204244,17.902131 C -35.927699,17.603275 -35.604376,17.326651 -35.48575,17.287409 C -35.308915,17.228912 -35.310793,17.167544 -35.49617,16.946715 C -35.690557,16.715154 -35.684844,16.636696 -35.455446,16.387423 C -35.130238,16.03404 -35.11005,15.625953 -35.412137,15.511957 C -35.535074,15.465565 -35.993226,15.376293 -36.430254,15.313574 C -37.474189,15.163757 -38.320057,14.732213 -38.608443,14.202309 C -38.811258,13.829638 -38.809879,13.719743 -38.597701,13.346777 C -38.290571,12.8069 -37.757955,12.728298 -36.958276,13.104836 C -36.314748,13.407847 -36.208653,13.547716 -36.491806,13.719807 C -36.681897,13.835339 -36.714832,14.761062 -36.528849,14.761062 C -36.32372,14.761062 -35.874784,13.767397 -35.780546,13.104788 C -35.666031,12.299601 -35.424671,12.037779 -34.796923,12.037779 C -34.513839,12.037779 -33.886607,11.936862 -33.403077,11.813519 C -32.919544,11.690175 -32.43702,11.622054 -32.330799,11.662138 C -32.064377,11.762676 -31.776852,12.427397 -31.597491,13.357451 C -31.465022,14.044358 -31.489421,14.196409 -31.797962,14.606802 C -32.101254,15.010212 -32.122357,15.132122 -31.952402,15.49894 C -31.685683,16.074601 -31.823283,16.149914 -32.493383,15.795036 C -33.150624,15.446966 -33.374828,15.564299 -33.081699,16.102921 C -32.91722,16.405147 -32.915832,16.558577 -33.074929,16.850915 C -33.24046,17.155075 -33.231798,17.249815 -33.024857,17.398622 C -32.883687,17.500132 -32.750454,17.889656 -32.719158,18.292366 C -32.667276,18.959979 -32.691354,19.009334 -33.091178,19.054925 C -33.661411,19.119946 -34.048325,18.70708 -34.048325,18.033578 C -34.048325,17.668416 -34.125106,17.484345 -34.277422,17.484345 C -34.427555,17.484345 -34.476672,17.59659 -34.419921,17.809999 C -34.277466,18.345699 -34.807257,18.76589 -35.625142,18.76589 C -36.2233,18.76589 -36.360314,18.826268 -36.483151,19.143987 C -36.676433,19.643916 -37.841154,20.120147 -38.291229,19.883274 C -38.63666,19.701476 -38.716788,19.095678 -38.432397,18.816009 C -38.059994,18.449791 -38.552665,18.494073 -38.992806,18.86638 L -39.455611,19.257855 L -39.174658,19.840085 C -38.906461,20.395878 -38.907157,20.431989 -39.189978,20.635358 C -39.352929,20.752531 -39.614523,20.8484 -39.7713,20.8484 C -40.112697,20.8484 -40.310842,21.105896 -40.078234,21.247268 C -39.832597,21.396559 -39.877714,21.901987 -40.157026,22.129945 C -40.513936,22.421234 -40.455625,22.740858 -40.034852,22.799624 C -39.79428,22.833223 -39.66833,22.960911 -39.66833,23.1712 C -39.66833,23.420358 -39.79494,23.5034 -40.237823,23.544723 C -40.913113,23.607732 -41.215868,23.820501 -41.215868,24.23207 C -41.215868,24.446097 -41.33332,24.532842 -41.623115,24.532842 C -41.847101,24.532842 -42.030362,24.471831 -42.030362,24.397261 z M -44.573136,21.716578 C -44.647455,21.425386 -44.576152,21.166896 -44.331892,20.842003 C -43.917806,20.291225 -43.899404,20.114068 -44.242817,19.984477 C -44.959633,19.713978 -45.267143,20.177854 -45.160655,21.369028 C -45.105222,21.989108 -45.034792,22.129945 -44.780133,22.129945 C -44.525547,22.129945 -44.487186,22.05334 -44.573136,21.716578 z M -42.041554,17.464178 C -41.640094,17.326552 -41.425856,17.330963 -41.137367,17.482793 C -40.719253,17.702844 -39.900212,17.527664 -39.787111,17.193995 C -39.719179,16.993585 -40.323217,16.916818 -41.419491,16.986536 C -41.897721,17.01695 -42.030362,16.967189 -42.030362,16.757362 C -42.030362,16.60995 -42.213623,16.275163 -42.437608,16.013393 C -42.661594,15.751622 -42.844855,15.398803 -42.844855,15.22935 C -42.844855,14.834635 -43.677371,14.801669 -44.063216,15.181106 C -44.269525,15.383989 -44.504208,15.417898 -45.133693,15.335781 L -45.939931,15.230606 L -45.939931,15.716703 C -45.939931,16.249072 -45.732629,16.322014 -45.067104,16.023817 C -44.735704,15.875328 -44.553116,15.908133 -43.995446,16.216355 C -43.571556,16.450638 -43.286744,16.73866 -43.224428,16.996063 C -43.045754,17.734098 -42.945109,17.773927 -42.041554,17.464178 z M -30.993974,24.359817 C -31.303561,24.182495 -31.378358,23.65095 -31.116148,23.491587 C -30.856835,23.333983 -30.923822,23.10548 -31.353092,22.683339 C -31.841995,22.202556 -32.028024,22.190815 -32.264752,22.625799 C -32.415379,22.902574 -32.387533,23.016332 -32.106027,23.274239 C -31.83479,23.522736 -31.799604,23.651289 -31.934815,23.899738 C -32.13436,24.266399 -32.670179,24.315216 -32.801495,23.978699 C -32.851663,23.850132 -33.134286,23.683383 -33.429544,23.608144 C -34.477957,23.340985 -34.177725,22.595677 -32.867563,22.213063 C -32.418805,22.08201 -31.956451,21.897098 -31.840111,21.802147 C -31.564515,21.577222 -30.335621,21.923724 -30.15148,22.278278 C -30.079454,22.41696 -29.971379,22.846489 -29.911313,23.232786 C -29.826854,23.775976 -29.86443,24.002869 -30.077126,24.233994 C -30.386404,24.570064 -30.580418,24.59669 -30.993974,24.359817 z M -38.420442,23.964629 C -38.524418,23.740217 -38.609489,23.400512 -38.609489,23.209729 C -38.609489,23.018945 -38.797648,22.715308 -39.02762,22.53498 C -39.394504,22.247296 -39.424753,22.152794 -39.274414,21.76394 C -39.057226,21.202179 -38.679941,21.056431 -38.305521,21.389648 C -38.145014,21.532493 -37.932158,21.649366 -37.832507,21.649366 C -37.495092,21.649366 -37.446332,21.971716 -37.706246,22.484073 C -37.937175,22.939293 -37.938351,23.009027 -37.717143,23.130765 C -37.395858,23.307579 -37.399863,23.801001 -37.725182,24.120916 C -38.076719,24.466615 -38.200781,24.438727 -38.420442,23.964629 z M -58.64603,22.685593 C -58.64603,22.099939 -58.48324,21.984064 -58.174469,22.349931 C -57.957182,22.607397 -58.082874,23.028728 -58.414277,23.153787 C -58.587232,23.219053 -58.64603,23.100267 -58.64603,22.685593 z M -56.365448,22.359704 C -56.365448,22.102534 -55.998061,21.649366 -55.789571,21.649366 C -55.532107,21.649366 -55.49417,21.798027 -55.649832,22.19694 C -55.740166,22.428437 -56.365448,22.570654 -56.365448,22.359704 z M -29.86614,21.741195 C -30.446854,21.211947 -30.435479,20.8484 -29.838206,20.8484 C -29.239125,20.8484 -28.698534,21.399921 -28.935501,21.769353 C -29.196442,22.176159 -29.395488,22.170136 -29.86614,21.741195 z M -53.912394,20.939841 C -54.043744,20.784202 -53.984065,20.507127 -53.681547,19.868059 C -53.457152,19.394025 -53.272839,18.927243 -53.271964,18.830766 C -53.269787,18.590816 -52.641779,18.0491 -52.512812,18.175926 C -52.455629,18.232159 -52.524922,18.586144 -52.666796,18.96256 C -52.80867,19.338975 -53.00331,19.945909 -53.099329,20.311301 C -53.285833,21.021024 -53.62355,21.282096 -53.912394,20.939841 z M -56.364839,20.487966 C -56.364029,20.008173 -55.780508,19.086276 -55.477631,19.086276 C -55.175888,19.086276 -54.845813,19.666736 -54.99751,19.930601 C -55.265019,20.395911 -55.792809,20.8484 -56.068046,20.8484 C -56.268044,20.8484 -56.365249,20.730352 -56.364839,20.487966 z M -36.238373,20.061891 C -36.409462,19.789661 -36.141555,19.429621 -35.639943,19.257663 C -35.159827,19.093073 -33.722527,19.014821 -33.722527,19.153271 C -33.722527,19.190118 -33.679934,19.329419 -33.627875,19.462829 C -33.487808,19.821774 -34.371594,20.207628 -35.333811,20.207628 C -35.780945,20.207628 -36.187996,20.142046 -36.238373,20.061891 z M -51.152689,18.615151 C -51.152689,18.020215 -50.899177,17.853164 -50.660862,18.291064 C -50.524432,18.541751 -50.527398,18.684133 -50.672635,18.856226 C -50.976764,19.216593 -51.152689,19.128246 -51.152689,18.615151 z M -54.867462,16.952114 C -54.9748,16.584044 -55.080867,16.102679 -55.103165,15.882414 C -55.140599,15.512635 -55.085475,15.478231 -54.384148,15.433676 C -53.647078,15.38685 -53.612526,15.405314 -53.217174,16.057281 C -52.993095,16.426803 -52.844125,16.81721 -52.886128,16.924851 C -52.979049,17.162977 -53.689943,17.496999 -54.25641,17.568694 C -54.620395,17.614762 -54.69666,17.537808 -54.867462,16.952114 z M -51.152689,15.882414 C -51.152689,15.794307 -51.088278,15.722221 -51.009554,15.722221 C -50.930829,15.722221 -50.775327,15.50596 -50.663993,15.241641 C -50.55266,14.977323 -50.399604,14.761062 -50.32387,14.761062 C -50.248136,14.761062 -49.814756,14.436671 -49.360804,14.040193 C -48.500495,13.288808 -48.311866,13.204561 -48.131696,13.491239 C -47.970612,13.74755 -50.369051,16.042607 -50.797991,16.042607 C -50.993075,16.042607 -51.152689,15.97052 -51.152689,15.882414 z M -58.64603,13.881012 C -58.64603,13.374175 -58.59478,13.318102 -57.983627,13.156269 C -57.619306,13.059797 -57.051196,13.002953 -56.721162,13.029949 L -56.1211,13.079034 L -57.098492,13.638323 C -58.631686,14.515656 -58.64603,14.517905 -58.64603,13.881012 z M -40.042997,14.088251 C -40.150511,13.982523 -40.238476,13.735836 -40.238476,13.540058 C -40.238476,13.322978 -40.4927,12.970103 -40.890071,12.635619 C -41.248448,12.333956 -41.541666,12.006456 -41.541666,11.907841 C -41.541666,11.809226 -41.314158,11.473728 -41.036095,11.162291 C -40.171959,10.194442 -39.005968,10.518104 -38.622723,11.832208 C -38.472028,12.348924 -38.844771,13.419212 -39.376737,13.997264 C -39.684462,14.331649 -39.781951,14.344962 -40.042997,14.088251 z M -46.974092,13.587681 C -46.471328,13.010596 -44.962538,11.949015 -44.962538,12.172356 C -44.962538,12.419276 -46.886359,14.120289 -47.165622,14.120289 C -47.381932,14.120289 -47.342447,14.010488 -46.974092,13.587681 z M -36.656589,12.916608 C -36.790244,12.758238 -36.82725,12.430046 -36.763237,11.970777 C -36.691488,11.456009 -36.729305,11.215158 -36.904306,11.072333 C -37.035807,10.965009 -37.1434,10.696796 -37.1434,10.476305 C -37.1434,10.124212 -37.088872,10.086235 -36.695429,10.164316 C -36.449045,10.213212 -36.115451,10.303427 -35.954109,10.364794 C -35.707956,10.45842 -35.676678,10.414009 -35.759695,10.088741 C -35.82768,9.8223644 -35.746311,9.5606968 -35.499565,9.2522215 C -35.205807,8.8849705 -35.053574,8.820428 -34.662528,8.8973383 C -34.399642,8.9490423 -34.044987,8.9178928 -33.874406,8.8281171 C -33.641063,8.7053096 -33.405067,8.7447543 -32.921401,8.9874032 C -32.063943,9.4175806 -31.981122,9.5986865 -32.43998,10.040142 C -32.888364,10.471522 -33.14562,10.534867 -33.760222,10.365228 C -34.00494,10.297683 -34.475781,10.305355 -34.806539,10.382278 C -35.322587,10.502294 -35.440156,10.617257 -35.635151,11.192528 C -35.769716,11.589521 -35.992782,11.903615 -36.18212,11.962711 C -36.447732,12.045613 -36.484146,12.155316 -36.397249,12.610818 C -36.282572,13.211955 -36.345105,13.285689 -36.656589,12.916608 z M -47.080222,12.438262 C -46.968687,12.306102 -46.804126,12.197972 -46.714532,12.197972 C -46.623663,12.197972 -46.641302,12.304222 -46.754424,12.438262 C -46.865959,12.570421 -47.030519,12.678551 -47.120114,12.678551 C -47.210983,12.678551 -47.193344,12.572302 -47.080222,12.438262 z M -24.901178,11.666705 C -25.028517,11.515818 -25.029886,11.276559 -24.905985,10.825691 C -24.619559,9.7833999 -24.437301,9.8062256 -24.437301,10.884389 C -24.437301,11.869205 -24.558203,12.073102 -24.901178,11.666705 z M -51.858584,11.610597 C -52.074439,11.398327 -51.95783,11.077293 -51.463945,10.524132 L -50.960708,9.9604959 L -49.496527,10.018364 C -47.823648,10.084481 -47.433614,10.28442 -48.034936,10.767605 C -48.246449,10.937563 -48.545775,11.07662 -48.700105,11.07662 C -48.854436,11.07662 -49.033128,11.128171 -49.097198,11.191177 C -49.429869,11.518323 -51.614928,11.850206 -51.858584,11.610597 z M -57.34284,10.515944 L -57.34284,9.9552685 L -56.161825,9.9712365 C -55.512266,9.980019 -54.797629,10.037315 -54.573743,10.098562 C -54.170061,10.208993 -54.172067,10.213521 -54.815181,10.64327 C -55.334771,10.990476 -55.65046,11.07662 -56.403263,11.07662 L -57.34284,11.07662 L -57.34284,10.515944 z M -39.05746,10.641205 C -39.647176,10.532686 -39.498147,9.9924137 -38.665026,9.2185265 C -37.822766,8.4361517 -37.466254,8.3562325 -36.974712,8.8396102 C -36.652409,9.1565606 -36.651269,9.1793997 -36.933988,9.6553769 C -37.34726,10.351151 -38.280147,10.784246 -39.05746,10.641205 z M -44.796373,9.0703351 C -44.683041,8.9360466 -44.556768,8.8591637 -44.515767,8.8994842 C -44.402797,9.0105777 -44.632328,9.314496 -44.8292,9.314496 C -44.937217,9.314496 -44.924859,9.2225801 -44.796373,9.0703351 z M -39.423982,8.8645343 C -39.423982,8.7932678 -39.31896,8.5950289 -39.190601,8.4240033 C -38.997535,8.1667635 -38.92015,8.1495012 -38.742629,8.3240734 C -38.565109,8.4986455 -38.582663,8.5747448 -38.844247,8.7646044 C -39.197242,9.0208106 -39.423982,9.0598942 -39.423982,8.8645343 z M -32.822916,8.4221888 C -33.048918,8.1823771 -33.233831,7.9246069 -33.233831,7.8493662 C -33.233831,7.7741255 -32.913219,7.7125649 -32.521361,7.7125649 L -31.808891,7.7125649 L -31.914678,8.2212156 C -32.054562,8.893812 -32.32256,8.9531141 -32.822916,8.4221888 z M -58.552945,8.2617984 C -58.612862,8.0270333 -58.63047,7.8040584 -58.592072,7.7662986 C -58.553675,7.7285388 -58.473235,7.889725 -58.413318,8.1244901 C -58.3534,8.3592551 -58.335793,8.5822301 -58.37419,8.6199899 C -58.412588,8.6577497 -58.493028,8.4965635 -58.552945,8.2617984 z M -40.793641,8.1130477 C -40.643861,7.8882496 -40.374236,7.7147998 -40.179016,7.7176596 C -39.855226,7.7224027 -39.850899,7.7374377 -40.116302,7.9355611 C -40.273092,8.0526048 -40.401375,8.2305295 -40.401375,8.3309492 C -40.401375,8.4313689 -40.549673,8.5135305 -40.730927,8.5135305 C -41.045009,8.5135305 -41.047952,8.4947283 -40.793641,8.1130477 z M -37.142337,8.1995214 C -37.457182,7.9616456 -37.493813,7.8754124 -37.305235,7.8160408 C -36.779473,7.6505102 -36.491806,7.7649879 -36.491806,8.1397465 C -36.491806,8.5907311 -36.610151,8.6016054 -37.142337,8.1995214 z M -24.6002,8.0158123 C -24.6002,7.9182797 -24.710075,7.879943 -24.844367,7.9306196 C -24.978657,7.9812962 -25.253549,7.9575346 -25.455237,7.877816 C -25.762293,7.7564487 -25.709331,7.7312214 -25.129621,7.7227189 C -24.618236,7.7152186 -24.437301,7.7753635 -24.437301,7.9528546 C -24.437301,8.0850139 -24.473953,8.1931442 -24.51875,8.1931442 C -24.563547,8.1931442 -24.6002,8.1133448 -24.6002,8.0158123 z M -44.066595,7.872758 C -44.011223,7.7846518 -43.892614,7.7125649 -43.80302,7.7125649 C -43.713426,7.7125649 -43.685426,7.7846518 -43.740798,7.872758 C -43.79617,7.9608642 -43.914779,8.0329511 -44.004374,8.0329511 C -44.093968,8.0329511 -44.121968,7.9608642 -44.066595,7.872758 z M -43.007754,7.8822121 C -43.007754,7.7889062 -42.934449,7.7125649 -42.844855,7.7125649 C -42.755261,7.7125649 -42.681956,7.744354 -42.681956,7.7832073 C -42.681956,7.8220607 -42.755261,7.8984019 -42.844855,7.9528546 C -42.934449,8.0073072 -43.007754,7.9755181 -43.007754,7.8822121 z"
     id="path2500" /></g><rect
   style="fill:#ffffff;fill-opacity:1;stroke:#ffffff"
   id="rect2486"
   width="49.023861"
   height="22.342733"
   x="-84.164856"
   y="-35.947941" /><path
   style="fill:url(#linearGradient8169);fill-opacity:1;fill-rule:evenodd;stroke:url(#linearGradient8177);stroke-width:1.00000024;stroke-linecap:butt;stroke-linejoin:miter;marker:none;marker-start:none;marker-mid:none;marker-end:none;stroke-miterlimit:4;stroke-dasharray:none;stroke-dashoffset:0;stroke-opacity:1;visibility:visible;display:inline;overflow:visible"
   d="M 35.206652,39.468763 C 37.23707,39.798661 44.795445,34.938834 44.491063,30.970919 C 42.927801,33.394016 39.732541,32.257657 35.623783,32.416667 C 35.623783,32.416667 36.019152,38.968763 35.206652,39.468763 z"
   id="path2210"
   sodipodi:nodetypes="cccc" /><path
   sodipodi:nodetypes="cccc"
   id="path2247"
   d="M 36.657089,37.277261 C 38.026868,36.593432 41.085338,35.130796 42.384719,33.249792 C 40.788625,33.929847 39.436909,33.459288 36.682385,33.440197 C 36.682385,33.440197 36.844707,36.502291 36.657089,37.277261 z"
   style="opacity:0.36931817;fill:none;fill-opacity:1;fill-rule:evenodd;stroke:url(#linearGradient8166);stroke-width:0.99999982;stroke-linecap:butt;stroke-linejoin:miter;marker:none;marker-start:none;marker-mid:none;marker-end:none;stroke-miterlimit:4;stroke-dasharray:none;stroke-dashoffset:0;stroke-opacity:1;visibility:visible;display:inline;overflow:visible" /></svg>